{"glyphs":{"0":{"ha":915,"x_min":33,"x_max":882,"o":"m 33 418 q 67 583 33 506 q 157 719 100 661 q 292 810 214 776 q 457 843 369 843 q 622 810 544 843 q 758 719 700 776 q 849 583 815 661 q 882 418 882 506 q 849 253 882 331 q 758 118 815 175 q 622 28 700 61 q 457 -6 544 -6 q 292 28 369 -6 q 157 118 214 61 q 67 253 100 175 q 33 418 33 331 m 267 415 q 281 340 267 375 q 322 279 296 306 q 383 238 349 253 q 458 224 418 224 q 534 238 499 224 q 595 279 569 253 q 636 340 621 306 q 651 415 651 375 q 636 491 651 456 q 595 552 621 526 q 534 593 569 578 q 458 608 499 608 q 383 593 418 608 q 322 552 349 578 q 281 491 296 526 q 267 415 267 456 z "},"1":{"ha":450,"x_min":10,"x_max":401,"o":"m 401 117 q 368 32 401 61 q 288 3 335 3 q 208 32 242 3 q 174 117 174 61 l 174 451 q 115 436 146 436 q 40 470 69 436 q 10 550 10 504 q 49 642 10 603 l 206 797 q 303 843 251 843 q 374 810 347 843 q 401 717 401 776 l 401 117 z "},"2":{"ha":767,"x_min":46,"x_max":724,"o":"m 75 0 q 46 35 47 0 l 46 265 q 107 462 46 393 q 290 531 168 531 l 478 531 q 524 565 524 531 q 478 600 524 600 l 169 600 q 58 715 61 600 l 58 719 q 168 831 58 831 l 463 831 q 724 565 724 831 q 663 369 724 438 q 479 300 601 300 l 292 300 q 246 265 246 300 l 247 231 l 600 231 q 724 115 724 231 q 601 0 724 0 l 75 0 z "},"3":{"ha":742,"x_min":46,"x_max":699,"o":"m 156 300 q 46 415 46 300 q 154 531 46 531 l 410 531 q 456 565 456 531 q 410 600 456 600 l 151 600 q 46 715 46 600 q 150 831 46 831 l 490 831 q 585 815 546 831 q 650 770 625 799 q 687 702 675 742 q 699 615 699 663 q 658 479 699 532 q 538 415 617 426 q 656 351 614 404 q 699 217 699 297 q 687 130 699 169 q 650 61 675 90 q 586 16 625 32 q 493 0 547 0 l 156 0 q 46 115 46 0 q 157 231 46 231 l 410 231 q 456 265 456 231 q 410 300 456 300 l 156 300 z "},"4":{"ha":711,"x_min":18,"x_max":663,"o":"m 663 115 q 628 31 663 60 q 547 1 594 1 q 467 31 501 1 q 433 115 433 60 l 433 300 l 132 300 q 18 415 18 300 l 18 715 q 52 800 18 771 q 132 829 86 829 q 213 800 179 829 q 247 715 247 771 l 247 531 l 433 531 l 433 715 q 467 800 433 771 q 547 829 501 829 q 628 800 594 829 q 663 715 663 771 l 663 115 z "},"5":{"ha":758,"x_min":47,"x_max":717,"o":"m 717 265 q 458 0 717 0 l 175 0 q 51 111 51 0 l 51 115 q 176 231 54 231 l 471 231 q 517 265 517 231 q 471 300 517 300 l 94 300 q 47 339 47 306 q 49 353 47 349 l 49 797 q 92 831 57 831 l 594 831 q 704 719 704 831 l 704 715 q 593 600 701 600 l 278 600 l 278 531 l 472 531 q 656 462 594 531 q 717 265 717 393 z "},"6":{"ha":747,"x_min":43,"x_max":706,"o":"m 706 265 q 447 0 706 0 l 288 0 q 102 67 161 0 q 43 271 43 135 l 43 568 q 304 831 43 831 l 583 831 q 693 719 693 831 l 693 715 q 582 600 690 600 l 319 600 q 272 551 275 600 l 272 531 l 461 531 q 644 462 583 531 q 706 265 706 393 m 460 231 q 506 265 506 231 q 460 300 506 300 l 308 300 q 272 265 272 300 q 308 231 272 231 l 460 231 z "},"7":{"ha":729,"x_min":42,"x_max":717,"o":"m 318 101 q 288 53 299 72 q 265 22 276 33 q 238 5 253 10 q 197 0 224 0 q 109 27 143 0 q 75 107 75 54 q 124 207 75 158 l 413 600 l 157 600 q 72 634 103 600 q 42 715 42 668 q 72 797 42 763 q 157 831 103 831 l 608 831 q 686 803 656 831 q 717 728 717 776 q 696 654 717 693 l 318 101 z "},"8":{"ha":761,"x_min":42,"x_max":718,"o":"m 249 0 q 156 16 194 0 q 91 61 117 32 q 53 131 65 90 q 42 218 42 171 q 84 351 42 297 q 204 415 126 404 q 84 478 126 426 q 42 611 42 531 q 53 699 42 658 q 91 768 65 739 q 156 814 117 797 q 251 831 196 831 l 510 831 q 605 815 565 831 q 669 770 644 799 q 706 702 694 742 q 718 615 718 663 q 677 479 718 532 q 557 415 636 426 q 676 351 633 404 q 718 217 718 297 q 706 130 718 169 q 669 61 694 90 q 606 16 644 32 q 513 0 567 0 l 249 0 m 332 300 q 286 265 286 300 q 332 231 286 231 l 429 231 q 475 265 475 231 q 429 300 475 300 l 332 300 m 332 600 q 286 565 286 600 q 332 531 286 531 l 429 531 q 475 565 475 531 q 429 600 475 600 l 332 600 z "},"9":{"ha":749,"x_min":42,"x_max":704,"o":"m 42 565 q 300 831 42 831 l 460 831 q 645 763 586 831 q 704 560 704 696 l 704 263 q 443 0 704 0 l 164 0 q 54 111 54 0 l 54 115 q 165 231 57 231 l 428 231 q 475 279 472 231 l 475 300 l 286 300 q 103 369 164 300 q 42 565 42 438 m 288 600 q 242 565 242 600 q 288 531 242 531 l 439 531 q 475 565 475 531 q 439 600 475 600 l 288 600 z "},"!":{"ha":319,"x_min":44,"x_max":275,"o":"m 272 349 q 239 264 272 294 q 158 233 206 233 q 78 264 113 233 q 44 349 44 294 l 44 715 q 78 800 44 771 q 158 829 113 829 q 239 800 206 829 q 272 715 272 771 l 272 349 m 275 115 q 242 34 275 68 q 161 0 208 0 q 80 34 114 0 q 46 115 46 68 q 80 197 46 163 q 161 231 114 231 q 242 197 208 231 q 275 115 275 163 z "},"\"":{"ha":582,"x_min":44,"x_max":536,"o":"m 274 621 q 240 536 274 565 q 160 507 206 507 q 78 536 113 507 q 44 621 44 565 l 44 771 q 78 856 44 825 q 160 886 113 886 q 240 856 206 886 q 274 771 274 825 l 274 621 m 536 621 q 502 536 536 565 q 422 507 468 507 q 341 536 375 507 q 307 621 307 565 l 307 771 q 341 856 307 825 q 422 886 375 886 q 502 856 468 886 q 536 771 536 825 l 536 621 z "},"#":{"ha":886,"x_min":24,"x_max":863,"o":"m 851 393 q 789 349 835 349 l 654 349 l 642 314 l 725 314 q 793 256 793 314 q 788 226 793 236 l 788 228 l 783 211 q 721 167 767 167 l 588 167 l 533 21 q 472 -22 519 -22 l 435 -22 q 368 33 368 -22 q 374 64 368 51 l 411 167 l 353 167 l 300 21 q 276 -12 293 -1 q 238 -22 260 -22 l 201 -22 q 133 35 133 -22 q 139 65 133 56 l 176 167 l 93 167 q 24 224 24 167 q 32 258 24 242 l 38 271 l 38 269 q 100 314 54 314 l 231 314 l 243 349 l 163 349 q 94 407 94 349 q 95 419 94 414 q 97 429 96 424 l 104 450 l 104 449 q 165 496 117 496 l 300 496 l 354 640 q 414 685 371 685 l 451 685 q 521 628 521 685 q 514 594 521 615 l 514 596 l 475 496 l 532 496 l 589 647 q 649 685 607 685 l 685 685 q 754 626 754 685 q 752 612 754 619 q 747 592 750 604 l 710 496 l 794 496 q 863 439 863 496 q 856 406 863 426 l 856 408 l 851 393 m 467 314 l 479 349 l 421 349 l 408 314 l 467 314 z "},"$":{"ha":740,"x_min":32,"x_max":710,"o":"m 710 265 q 451 0 710 0 l 426 0 l 426 -18 q 409 -61 426 -47 q 371 -75 392 -75 q 333 -61 350 -75 q 315 -18 315 -47 l 315 0 l 154 0 q 44 111 44 0 l 44 115 q 156 231 47 231 l 315 231 l 315 300 l 276 300 q 32 565 32 307 q 293 831 32 831 l 315 831 l 315 849 q 333 892 315 878 q 371 906 350 906 q 409 892 392 906 q 426 849 426 878 l 426 831 l 546 831 q 656 719 656 831 l 656 715 q 544 600 653 600 l 426 600 l 426 531 l 465 531 q 710 265 710 524 m 464 231 q 510 265 510 231 q 464 300 510 300 l 426 300 l 426 231 l 464 231 m 278 600 q 232 565 232 600 q 278 531 232 531 l 315 531 l 315 600 l 278 600 z "},"%":{"ha":1072,"x_min":44,"x_max":1028,"o":"m 229 24 q 158 0 193 0 q 115 10 135 0 q 78 35 94 19 q 53 73 63 51 q 44 118 44 94 q 86 206 44 168 l 838 807 q 908 832 871 832 q 952 822 931 832 q 989 796 974 813 q 1014 758 1004 779 q 1024 713 1024 736 q 979 625 1024 661 l 229 24 m 393 660 q 380 596 393 626 q 344 542 367 565 q 290 506 321 519 q 225 492 260 492 q 156 505 188 492 q 102 540 125 518 q 67 593 79 563 q 54 660 54 624 q 67 726 54 694 q 104 781 81 757 q 158 817 128 804 q 225 831 189 831 q 290 817 260 831 q 344 779 321 803 q 380 725 367 756 q 393 660 393 694 m 1028 174 q 1015 107 1028 138 q 978 53 1001 76 q 924 17 956 31 q 858 4 893 4 q 792 17 822 4 q 738 53 761 31 q 702 107 715 76 q 689 174 689 138 q 702 239 689 208 q 738 292 715 269 q 792 328 761 315 q 858 342 822 342 q 924 328 893 342 q 978 292 956 315 q 1015 239 1001 269 q 1028 174 1028 208 m 251 663 q 225 690 251 690 q 204 682 213 690 q 196 663 196 674 q 204 643 196 651 q 225 635 213 635 q 244 643 236 635 q 251 663 251 651 m 886 175 q 878 195 886 186 q 858 204 869 204 q 839 195 847 204 q 831 175 831 186 q 839 156 831 164 q 858 147 847 147 q 878 156 869 147 q 886 175 886 164 z "},"&":{"ha":849,"x_min":43,"x_max":828,"o":"m 700 115 q 690 63 700 85 q 661 28 679 42 q 621 7 643 14 q 574 0 599 0 l 250 0 q 157 16 196 0 q 92 61 118 32 q 55 131 67 90 q 43 218 43 171 q 85 351 43 297 q 206 415 128 404 q 85 478 128 426 q 43 611 43 531 q 55 699 43 658 q 92 768 67 739 q 158 814 118 797 q 253 831 197 831 l 357 831 q 461 715 461 831 q 356 600 461 600 l 333 600 q 288 565 288 600 q 333 531 288 531 l 471 531 l 471 549 q 505 633 471 604 q 586 663 539 663 q 666 633 632 663 q 700 549 700 604 l 700 531 l 719 531 q 828 415 828 531 q 718 300 828 300 l 700 300 l 700 115 m 333 300 q 288 265 288 300 q 333 231 288 231 l 471 231 l 471 300 l 333 300 z "},"'":{"ha":314,"x_min":42,"x_max":271,"o":"m 271 621 q 237 536 271 565 q 157 507 203 507 q 76 536 110 507 q 42 621 42 565 l 42 771 q 76 856 42 825 q 157 886 110 886 q 237 856 203 886 q 271 771 271 825 l 271 621 z "},"(":{"ha":428,"x_min":56,"x_max":372,"o":"m 239 -262 q 56 397 56 47 q 239 1057 56 749 l 369 1057 q 219 753 269 919 q 168 397 168 586 q 372 -262 168 58 l 239 -262 z "},")":{"ha":425,"x_min":53,"x_max":368,"o":"m 53 -262 q 147 -99 108 -178 q 210 58 185 -21 q 246 219 235 136 q 257 397 257 303 q 206 751 257 594 q 53 1057 156 907 l 185 1057 q 323 739 278 901 q 368 397 368 576 q 323 56 368 219 q 185 -262 278 -107 l 53 -262 z "},"*":{"ha":515,"x_min":31,"x_max":483,"o":"m 483 350 q 477 335 483 342 q 463 329 471 329 l 406 329 l 435 275 q 438 265 438 269 q 426 247 438 254 l 322 190 q 313 188 317 188 q 296 197 301 188 l 261 247 l 228 197 q 213 186 221 186 q 201 190 207 186 l 94 247 q 83 265 83 254 q 86 275 83 269 l 115 329 l 51 329 q 37 335 43 329 q 31 350 31 342 l 31 461 q 37 476 31 469 q 51 482 43 482 l 119 482 l 86 533 q 82 546 82 539 q 93 563 82 557 l 200 619 q 213 624 206 624 q 228 613 221 624 l 258 563 l 288 613 q 303 624 294 624 q 315 619 308 624 l 422 560 q 433 542 433 553 q 431 532 433 538 l 403 482 l 463 482 q 477 476 471 482 q 483 461 483 469 l 483 350 z "},"+":{"ha":642,"x_min":17,"x_max":622,"o":"m 442 225 q 408 140 442 171 q 328 110 374 110 q 248 140 282 110 q 214 225 214 171 l 214 297 l 132 297 q 47 331 78 297 q 17 411 17 365 q 47 492 17 458 q 132 526 78 526 l 214 526 l 214 599 q 248 683 214 653 q 328 714 282 714 q 408 683 374 714 q 442 599 442 653 l 442 526 l 507 526 q 592 492 561 526 q 622 411 622 458 q 592 331 622 365 q 507 297 561 297 l 442 297 l 442 225 z "},",":{"ha":311,"x_min":40,"x_max":268,"o":"m 268 -128 q 234 -211 268 -181 q 154 -242 200 -242 q 74 -211 108 -242 q 40 -128 40 -181 l 40 21 q 72 102 40 69 q 154 135 104 135 q 236 102 204 135 q 268 21 268 69 l 268 -128 z "},"-":{"ha":692,"x_min":43,"x_max":649,"o":"m 158 297 q 74 332 104 297 q 43 413 43 367 q 74 495 43 460 q 158 531 104 531 l 533 531 q 618 495 588 531 q 649 413 649 460 q 618 332 649 367 q 533 297 588 297 l 158 297 z "},".":{"ha":297,"x_min":33,"x_max":264,"o":"m 264 40 q 255 -3 264 17 q 230 -40 246 -24 q 193 -65 214 -56 q 149 -74 172 -74 q 104 -65 125 -74 q 67 -40 83 -56 q 42 -3 51 -24 q 33 40 33 17 q 67 122 33 88 q 149 156 101 156 q 230 122 196 156 q 264 40 264 88 z "},"/":{"ha":435,"x_min":18,"x_max":415,"o":"m 190 743 q 231 808 201 788 q 294 828 260 828 q 338 820 317 828 q 377 798 360 813 q 405 763 394 783 q 415 717 415 742 q 411 683 415 700 l 244 85 q 205 21 233 42 q 140 0 176 0 q 94 8 117 0 q 56 30 72 15 q 28 64 39 44 q 18 108 18 83 q 24 144 18 128 l 190 743 z "},":":{"ha":303,"x_min":36,"x_max":267,"o":"m 267 378 q 233 297 267 331 q 151 263 199 263 q 70 297 104 263 q 36 378 36 331 q 70 459 36 425 q 151 493 104 493 q 233 459 199 493 q 267 378 267 425 m 267 78 q 233 -3 267 31 q 151 -36 199 -36 q 70 -3 104 -36 q 36 78 36 31 q 70 159 36 125 q 151 193 104 193 q 233 159 199 193 q 267 78 267 125 z "},";":{"ha":311,"x_min":40,"x_max":271,"o":"m 268 -89 q 235 -174 268 -143 q 154 -204 201 -204 q 74 -174 108 -204 q 40 -89 40 -143 l 40 58 q 74 143 40 113 q 154 174 108 174 q 235 143 201 174 q 268 58 268 113 l 268 -89 m 271 360 q 238 277 271 310 q 157 244 204 244 q 76 277 110 244 q 42 360 42 310 q 76 441 42 407 q 157 475 110 475 q 238 441 204 475 q 271 360 271 407 z "},"<":{"ha":589,"x_min":10,"x_max":544,"o":"m 510 196 q 544 115 544 161 q 535 71 544 92 q 510 34 525 50 q 473 9 494 18 q 429 0 451 0 q 347 35 382 0 l 47 335 q 10 415 10 372 q 47 496 10 458 l 347 796 l 347 794 q 429 832 382 832 q 473 822 451 832 q 510 797 494 813 q 535 759 525 781 q 544 715 544 738 q 510 635 544 669 l 292 415 l 510 196 z "},"=":{"ha":693,"x_min":43,"x_max":649,"o":"m 158 153 q 76 186 110 153 q 43 268 43 219 q 74 349 43 314 q 158 383 104 383 l 533 383 q 618 349 588 383 q 649 268 649 314 q 615 186 649 219 q 533 153 582 153 l 158 153 m 158 447 q 76 481 110 447 q 43 563 43 514 q 74 643 43 608 q 158 678 104 678 l 533 678 q 618 643 588 678 q 649 563 649 608 q 615 481 649 514 q 533 447 582 447 l 158 447 z "},">":{"ha":589,"x_min":43,"x_max":579,"o":"m 240 35 q 158 0 206 0 q 114 9 135 0 q 78 34 93 18 q 53 70 63 50 q 43 114 43 90 q 81 196 43 160 l 79 196 l 297 415 l 79 635 l 81 635 q 43 715 43 669 q 53 759 43 738 q 78 796 63 781 q 114 821 93 811 q 158 831 135 831 q 240 796 206 831 l 540 496 q 579 415 579 457 q 539 335 579 371 l 540 335 l 240 35 z "},"?":{"ha":751,"x_min":43,"x_max":708,"o":"m 449 115 q 415 34 449 68 q 333 0 381 0 q 252 34 286 0 q 218 115 218 68 q 252 197 218 163 q 333 231 286 231 q 415 197 381 231 q 449 115 449 163 m 344 300 q 224 415 224 300 q 343 531 224 531 l 463 531 q 508 565 508 531 q 463 600 508 600 l 163 600 q 43 715 46 600 l 43 719 q 161 831 43 831 l 450 831 q 708 565 708 831 q 451 300 708 300 l 344 300 z "},"A":{"ha":810,"x_min":22,"x_max":785,"o":"m 354 342 l 465 342 l 414 490 l 354 342 m 528 161 l 282 161 l 247 72 q 205 16 232 33 q 146 -1 178 -1 q 101 6 122 -1 q 61 28 79 14 q 33 63 43 43 q 22 107 22 82 q 32 153 22 132 l 306 757 q 354 815 324 796 q 417 835 385 835 q 478 815 449 835 q 524 757 508 796 l 775 153 q 785 107 785 132 q 774 63 785 83 q 746 28 764 43 q 706 6 728 14 q 661 -1 683 -1 q 601 16 629 -1 q 560 72 574 33 l 528 161 z "},"B":{"ha":751,"x_min":49,"x_max":710,"o":"m 268 600 l 268 503 l 440 503 q 474 519 463 503 q 486 554 486 535 q 475 586 486 572 q 440 600 464 600 l 268 600 m 268 314 l 268 231 l 440 231 q 475 244 464 231 q 486 272 486 257 q 475 301 486 288 q 440 314 464 314 l 268 314 m 49 415 l 49 715 q 153 831 49 831 l 521 831 q 604 811 568 831 q 663 760 640 792 q 698 688 686 728 q 710 606 710 647 q 701 536 710 569 q 674 476 692 503 q 630 433 657 450 q 568 415 603 417 q 671 348 638 404 q 704 222 704 292 q 693 142 704 182 q 659 70 682 101 q 602 19 636 39 q 524 0 568 0 l 158 0 q 49 115 49 0 l 49 117 l 49 415 z "},"C":{"ha":689,"x_min":29,"x_max":643,"o":"m 443 597 q 359 582 394 597 q 299 541 324 567 q 263 483 275 515 q 251 415 251 450 q 263 347 251 381 q 299 288 275 314 q 359 247 324 263 q 442 231 394 231 l 526 231 q 577 221 556 231 q 613 194 599 211 q 635 157 628 178 q 642 115 642 136 q 613 35 642 71 q 526 0 583 0 l 443 0 q 263 35 340 0 q 133 128 185 71 q 55 258 81 185 q 29 410 29 332 q 56 564 29 489 q 137 699 83 639 q 272 794 190 758 q 461 831 353 831 l 526 831 q 577 821 556 831 q 613 794 599 811 q 635 757 628 778 q 643 714 643 736 q 635 671 643 692 q 613 633 628 650 q 577 607 599 617 q 526 597 556 597 l 443 597 z "},"D":{"ha":739,"x_min":47,"x_max":708,"o":"m 47 715 q 58 758 47 738 q 85 795 68 779 q 124 821 103 811 q 167 831 146 831 l 278 831 q 467 794 386 831 q 601 699 547 758 q 681 564 654 639 q 708 410 708 489 q 683 258 708 332 q 605 128 657 185 q 476 35 553 71 q 296 0 399 0 l 167 0 q 80 31 113 0 q 47 115 47 63 l 47 715 m 297 231 q 377 247 343 231 q 435 290 411 264 q 470 351 458 317 q 482 421 482 385 q 471 486 482 454 q 437 542 460 518 q 378 582 414 567 q 296 597 343 597 l 276 597 l 276 231 l 297 231 z "},"E":{"ha":711,"x_min":47,"x_max":665,"o":"m 161 0 q 47 115 47 0 l 47 715 q 161 831 47 831 l 550 831 q 635 797 604 831 q 665 715 665 763 q 635 634 665 668 q 550 600 604 600 l 275 600 l 275 531 l 494 531 q 579 497 549 531 q 610 415 610 463 q 579 334 610 368 q 494 300 549 300 l 275 300 l 275 231 l 550 231 q 635 197 604 231 q 665 115 665 163 q 635 34 665 68 q 550 0 604 0 l 161 0 z "},"F":{"ha":679,"x_min":47,"x_max":665,"o":"m 275 115 q 241 31 275 60 q 161 1 207 1 q 81 31 115 1 q 47 115 47 60 l 47 715 q 161 831 47 831 l 550 831 q 635 797 604 831 q 665 715 665 763 q 635 634 665 668 q 550 600 604 600 l 275 600 l 275 531 l 494 531 q 579 497 549 531 q 610 415 610 463 q 579 334 610 368 q 494 300 549 300 l 275 300 l 275 115 z "},"G":{"ha":690,"x_min":29,"x_max":643,"o":"m 643 115 q 610 31 643 61 q 526 0 576 0 l 443 0 q 263 35 340 0 q 133 128 185 71 q 55 258 81 185 q 29 410 29 332 q 56 564 29 489 q 137 699 83 639 q 272 794 190 758 q 461 831 353 831 l 526 831 q 577 821 556 831 q 613 794 599 811 q 635 757 628 778 q 643 714 643 736 q 635 671 643 692 q 613 633 628 650 q 577 607 599 617 q 526 597 556 597 l 443 597 q 359 582 394 597 q 299 541 324 567 q 263 483 275 515 q 251 415 251 450 q 262 353 251 383 q 292 297 272 322 q 343 253 313 271 q 414 232 374 236 l 414 367 q 448 451 414 422 q 529 481 482 481 q 609 451 575 481 q 643 367 643 422 l 643 115 z "},"H":{"ha":740,"x_min":47,"x_max":692,"o":"m 692 115 q 658 31 692 60 q 576 1 624 1 q 497 31 531 1 q 463 115 463 60 l 463 300 l 276 300 l 276 115 q 242 31 276 60 q 161 1 208 1 q 81 31 115 1 q 47 115 47 60 l 47 715 q 81 800 47 771 q 161 829 115 829 q 242 800 208 829 q 276 715 276 771 l 276 531 l 463 531 l 463 715 q 497 800 463 771 q 576 829 531 829 q 658 800 624 829 q 692 715 692 771 l 692 115 z "},"I":{"ha":324,"x_min":46,"x_max":275,"o":"m 275 115 q 241 31 275 60 q 161 1 207 1 q 80 31 114 1 q 46 115 46 60 l 46 715 q 80 800 46 771 q 161 829 114 829 q 241 800 207 829 q 275 715 275 771 l 275 115 z "},"J":{"ha":599,"x_min":10,"x_max":558,"o":"m 558 414 q 535 243 558 319 q 464 113 511 167 q 345 29 417 58 q 179 0 274 0 l 125 0 q 40 34 71 0 q 10 115 10 68 q 40 197 10 163 q 125 231 71 231 l 160 231 q 233 239 201 231 q 287 267 265 247 q 319 319 308 286 q 331 400 331 351 l 331 715 q 365 800 331 771 q 444 829 399 829 q 524 800 490 829 q 558 715 558 771 l 558 414 z "},"K":{"ha":717,"x_min":47,"x_max":672,"o":"m 276 115 q 242 31 276 60 q 163 1 208 1 q 81 31 115 1 q 47 115 47 60 l 47 715 q 81 800 47 771 q 163 829 115 829 q 242 800 208 829 q 276 715 276 771 l 276 525 l 463 790 q 503 822 482 811 q 551 833 524 833 q 597 824 575 833 q 635 799 618 814 q 661 762 651 783 q 671 718 671 740 q 644 647 671 678 l 442 419 l 644 188 q 672 115 672 156 q 662 71 672 92 q 635 35 651 50 q 597 10 618 19 q 553 0 575 0 q 464 44 500 0 l 276 306 l 276 115 z "},"L":{"ha":519,"x_min":47,"x_max":506,"o":"m 161 0 q 47 115 47 0 l 47 715 q 81 800 47 771 q 161 829 115 829 q 241 800 207 829 q 275 715 275 771 l 275 231 l 397 231 q 478 197 450 231 q 506 115 506 163 q 478 34 506 68 q 397 0 450 0 l 161 0 z "},"M":{"ha":894,"x_min":49,"x_max":846,"o":"m 278 115 q 244 31 278 60 q 163 1 210 1 q 83 31 117 1 q 49 115 49 60 l 49 703 q 72 799 49 769 q 158 829 96 829 q 245 811 215 829 q 300 761 275 793 l 451 568 l 601 763 q 655 811 625 793 q 733 829 685 829 q 821 799 796 829 q 846 703 846 769 l 846 115 q 812 31 846 60 q 731 1 778 1 q 651 31 685 1 q 617 115 617 60 l 617 465 l 514 329 q 444 288 481 288 q 376 331 407 288 l 278 465 l 278 115 z "},"N":{"ha":740,"x_min":47,"x_max":692,"o":"m 276 115 q 242 31 276 60 q 161 1 208 1 q 81 31 115 1 q 47 115 47 60 l 47 715 q 81 800 47 771 q 161 829 115 829 l 167 829 q 254 778 228 829 l 463 463 l 463 715 q 497 800 463 771 q 576 829 531 829 q 658 800 624 829 q 692 715 692 771 l 692 115 q 658 31 692 60 q 576 1 624 1 q 536 7 553 1 q 508 21 519 13 q 489 38 496 29 q 478 51 482 46 l 276 351 l 276 115 z "},"O":{"ha":915,"x_min":33,"x_max":882,"o":"m 33 418 q 67 583 33 506 q 157 719 100 661 q 292 810 214 776 q 457 843 369 843 q 622 810 544 843 q 758 719 700 776 q 849 583 815 661 q 882 418 882 506 q 849 253 882 331 q 758 118 815 175 q 622 28 700 61 q 457 -6 544 -6 q 292 28 369 -6 q 157 118 214 61 q 67 253 100 175 q 33 418 33 331 m 267 415 q 281 340 267 375 q 322 279 296 306 q 383 238 349 253 q 458 224 418 224 q 534 238 499 224 q 595 279 569 253 q 636 340 621 306 q 651 415 651 375 q 636 491 651 456 q 595 552 621 526 q 534 593 569 578 q 458 608 499 608 q 383 593 418 608 q 322 552 349 578 q 281 491 296 526 q 267 415 267 456 z "},"P":{"ha":697,"x_min":49,"x_max":683,"o":"m 279 118 q 164 0 279 0 q 77 30 106 0 q 49 115 49 60 l 49 715 q 160 831 49 831 l 393 831 q 523 808 468 831 q 613 747 578 785 q 666 662 649 710 q 683 564 683 614 q 667 467 683 514 q 620 383 651 419 q 544 323 589 346 q 440 300 499 300 l 403 300 q 299 393 299 300 q 311 444 299 426 q 343 470 324 461 q 385 483 363 479 q 426 492 407 486 q 460 511 446 499 q 475 550 474 524 q 403 613 475 613 l 279 613 l 279 118 z "},"Q":{"ha":921,"x_min":33,"x_max":882,"o":"m 658 44 q 563 8 614 21 q 457 -6 511 -6 q 292 28 369 -6 q 157 118 214 61 q 67 253 100 175 q 33 418 33 331 q 67 583 33 506 q 157 719 100 661 q 292 810 214 776 q 457 843 369 843 q 622 810 544 843 q 758 719 700 776 q 849 583 815 661 q 882 418 882 506 q 867 307 882 360 q 826 208 853 254 l 840 194 q 867 156 858 176 q 875 114 875 135 q 865 69 875 90 q 839 31 856 47 q 801 4 822 14 q 756 -6 779 -6 q 675 29 711 -6 l 658 44 m 267 415 q 281 340 267 375 q 322 279 296 306 q 383 238 349 253 q 458 224 418 224 q 479 225 476 224 l 410 294 q 375 375 375 331 q 385 420 375 399 q 411 458 394 442 q 449 485 428 475 q 494 494 471 494 q 536 486 515 494 q 575 460 557 478 l 649 386 q 651 401 650 393 q 651 415 651 408 q 636 491 651 456 q 595 552 621 526 q 534 593 569 578 q 458 608 499 608 q 383 593 418 608 q 322 552 349 578 q 281 491 296 526 q 267 415 267 456 z "},"R":{"ha":728,"x_min":49,"x_max":689,"o":"m 333 293 q 299 393 299 340 q 311 444 299 426 q 343 470 324 461 q 385 483 363 479 q 426 492 407 486 q 460 511 446 499 q 475 550 474 524 q 403 613 475 613 l 279 613 l 279 118 q 164 0 279 0 q 77 30 106 0 q 49 115 49 60 l 49 715 q 160 831 49 831 l 407 831 q 533 809 479 831 q 621 752 586 788 q 672 672 656 717 q 689 579 689 626 q 653 446 689 508 q 549 351 618 383 l 647 194 q 669 121 669 158 q 660 74 669 96 q 634 35 650 51 q 597 9 618 18 q 554 0 576 0 q 505 15 529 0 q 463 61 481 29 l 333 293 z "},"S":{"ha":686,"x_min":40,"x_max":649,"o":"m 649 265 q 390 0 649 0 l 163 0 q 53 111 53 0 l 53 115 q 164 231 56 231 l 403 231 q 438 244 426 231 q 449 272 449 257 q 438 301 449 288 q 403 314 426 314 l 285 314 q 40 565 40 314 q 301 831 40 831 l 485 831 q 594 719 594 831 l 594 715 q 483 600 592 600 l 286 600 q 251 587 263 600 q 240 558 240 574 q 251 530 240 543 q 286 517 263 517 l 404 517 q 649 265 649 517 z "},"T":{"ha":664,"x_min":22,"x_max":640,"o":"m 447 115 q 413 31 447 60 q 332 1 379 1 q 252 31 286 1 q 218 115 218 60 l 218 600 l 138 600 q 53 634 83 600 q 22 715 22 668 q 53 797 22 763 q 138 831 83 831 l 525 831 q 610 797 579 831 q 640 715 640 763 q 610 634 640 668 q 525 600 579 600 l 447 600 l 447 115 z "},"U":{"ha":758,"x_min":43,"x_max":715,"o":"m 715 365 q 382 0 715 0 q 43 365 43 0 l 43 715 q 77 800 43 771 q 157 829 111 829 q 238 800 204 829 q 272 715 272 771 l 272 331 q 379 228 272 228 q 486 331 486 228 l 486 715 q 520 800 486 771 q 600 829 554 829 q 681 800 647 829 q 715 715 715 771 l 715 365 z "},"V":{"ha":785,"x_min":24,"x_max":760,"o":"m 535 757 q 577 814 550 796 q 636 832 604 832 q 681 824 658 832 q 721 801 703 815 q 749 766 739 786 q 760 721 760 746 q 750 676 760 697 l 503 76 q 397 0 469 0 q 281 76 324 0 l 33 676 q 24 721 24 697 q 34 766 24 746 q 63 801 44 786 q 102 824 81 815 q 147 832 124 832 q 206 814 179 832 q 249 757 233 796 l 392 390 l 535 757 z "},"W":{"ha":1160,"x_min":46,"x_max":1114,"o":"m 901 757 q 939 817 913 799 q 997 836 965 836 q 1039 828 1018 836 q 1076 806 1060 821 q 1103 771 1093 792 q 1114 725 1114 750 q 1107 683 1114 707 l 911 76 q 867 17 899 36 q 801 -3 836 -3 q 734 17 765 -3 q 689 76 703 38 l 583 382 l 485 76 q 441 17 472 36 q 375 -3 410 -3 q 308 17 339 -3 q 263 76 276 38 l 53 686 q 46 726 46 710 q 56 772 46 751 q 83 806 67 792 q 121 828 100 821 q 164 836 142 836 q 223 817 196 836 q 261 757 250 799 l 374 351 l 475 757 q 516 818 486 797 q 581 839 546 839 q 646 818 615 839 q 688 757 676 797 l 800 351 l 901 757 z "},"X":{"ha":699,"x_min":43,"x_max":654,"o":"m 436 771 q 478 816 454 801 q 531 831 503 831 q 575 821 553 831 q 615 796 597 811 q 642 759 632 781 q 653 715 653 738 q 633 656 653 683 l 469 414 l 635 171 q 654 111 654 143 q 642 67 654 88 q 613 31 631 46 q 572 6 594 15 q 528 -3 550 -3 q 478 11 501 -3 q 438 56 454 25 l 349 213 l 260 56 q 219 11 243 25 q 169 -3 196 -3 q 125 6 147 -3 q 85 31 103 15 q 55 67 67 46 q 43 111 43 88 q 63 171 43 143 l 228 414 l 64 656 q 44 715 44 683 q 55 759 44 738 q 83 796 65 781 q 122 821 100 811 q 167 831 144 831 q 219 816 194 831 q 261 771 243 801 l 349 617 l 436 771 z "},"Y":{"ha":681,"x_min":22,"x_max":658,"o":"m 442 771 q 484 816 460 801 q 536 831 508 831 q 581 821 558 831 q 620 796 603 811 q 648 760 638 781 q 658 717 658 739 q 639 656 658 688 l 456 360 l 456 114 q 422 29 456 58 q 342 0 388 0 q 260 29 294 0 q 226 114 226 58 l 226 360 l 42 656 q 22 717 22 688 q 33 760 22 739 q 60 796 43 781 q 100 821 78 811 q 144 831 122 831 q 197 816 172 831 q 239 771 221 801 l 340 597 l 442 771 z "},"Z":{"ha":767,"x_min":44,"x_max":722,"o":"m 593 231 q 678 197 647 231 q 708 115 708 163 q 678 34 708 68 q 593 0 647 0 l 171 0 q 78 27 113 0 q 44 107 44 54 q 93 207 44 158 l 406 600 l 163 600 q 78 634 108 600 q 47 715 47 668 q 78 797 47 763 q 163 831 108 831 l 614 831 q 692 803 661 831 q 722 728 722 776 q 701 654 722 693 l 379 231 l 593 231 z "},"[":{"ha":474,"x_min":47,"x_max":429,"o":"m 161 -89 q 47 24 47 -89 l 47 810 q 161 924 47 924 l 314 924 q 399 890 368 924 q 429 810 429 856 q 399 730 429 764 q 314 696 368 696 l 275 696 l 275 139 l 314 139 q 399 105 368 139 q 429 24 429 71 q 399 -55 429 -21 q 314 -89 368 -89 l 161 -89 z "},"\\":{"ha":435,"x_min":18,"x_max":415,"o":"m 410 144 q 415 108 415 128 q 405 64 415 83 q 378 30 394 44 q 339 8 361 15 q 293 0 317 0 q 228 21 257 0 q 189 85 200 42 l 22 683 q 18 717 18 700 q 28 763 18 742 q 56 798 39 783 q 95 820 74 813 q 139 828 117 828 q 203 808 174 828 q 243 743 232 788 l 410 144 z "},"]":{"ha":474,"x_min":43,"x_max":425,"o":"m 425 24 q 311 -89 425 -89 l 158 -89 q 74 -55 104 -89 q 43 24 43 -21 q 74 105 43 71 q 158 139 104 139 l 197 139 l 197 696 l 158 696 q 74 730 104 696 q 43 810 43 764 q 74 890 43 856 q 158 924 104 924 l 311 924 q 425 810 425 924 l 425 24 z "},"^":{"ha":1964,"x_min":86,"x_max":1878,"o":"m 86 407 l 88 407 l 88 472 l 181 472 l 181 511 l 156 511 l 156 633 l 181 633 l 181 676 l 156 676 l 156 728 l 765 728 l 765 664 q 732 682 756 682 q 668 575 668 682 q 735 469 668 469 q 778 496 756 469 l 778 472 l 811 472 l 811 728 l 1331 728 l 1331 692 l 1378 692 l 1378 728 l 1878 728 l 1878 0 l 86 0 l 86 407 m 1303 472 l 1303 603 q 1238 678 1303 678 q 1194 644 1204 678 q 1156 678 1182 678 q 1118 644 1132 678 l 1118 676 l 1074 676 l 1074 511 l 1047 511 l 1047 472 l 1144 472 l 1144 511 l 1118 511 l 1118 596 q 1144 628 1118 628 q 1165 596 1165 628 l 1165 472 l 1236 472 l 1236 511 l 1210 511 l 1210 596 q 1236 626 1210 626 q 1257 596 1257 626 l 1257 472 l 1303 472 m 1369 371 l 1292 371 l 1292 108 l 1336 108 l 1336 278 l 1340 278 l 1353 108 l 1433 108 l 1433 371 l 1389 371 l 1389 201 l 1385 201 l 1369 371 m 667 371 l 667 108 l 776 108 l 792 138 l 792 224 l 781 243 l 781 247 l 792 267 l 792 343 l 776 371 l 667 371 m 1147 343 l 1147 138 l 1161 108 l 1254 108 l 1271 138 l 1271 343 l 1256 371 l 1161 371 l 1147 343 m 376 371 l 376 108 l 429 108 l 429 224 l 444 224 l 444 108 l 501 108 l 501 214 l 481 243 l 481 247 l 501 275 l 501 343 l 486 371 l 376 371 m 356 407 l 401 407 l 401 485 q 435 468 411 468 q 499 574 499 468 q 432 679 499 679 q 389 651 413 679 l 389 676 l 356 676 l 356 407 m 660 572 q 583 681 660 681 q 508 572 508 681 q 583 467 508 467 q 660 572 660 467 m 1644 290 l 1697 290 l 1697 343 l 1683 371 l 1592 371 l 1576 343 l 1576 251 l 1593 224 l 1644 211 l 1644 158 l 1631 158 l 1631 197 l 1576 197 l 1576 138 l 1592 108 l 1682 108 l 1697 138 l 1697 238 l 1679 267 l 1631 278 l 1631 324 l 1644 324 l 1644 290 m 356 108 l 356 204 l 319 371 l 263 371 l 231 204 l 231 108 l 282 108 l 282 158 l 300 158 l 300 108 l 356 108 m 644 108 l 644 204 l 611 371 l 554 371 l 522 204 l 522 108 l 575 108 l 575 158 l 592 158 l 592 108 l 644 108 m 235 407 l 264 407 q 340 506 340 415 l 340 676 l 294 676 l 294 550 q 267 514 294 514 q 240 550 240 514 l 240 676 l 196 676 l 196 558 q 260 469 196 469 q 294 481 279 469 q 256 449 294 449 l 235 449 l 235 407 m 942 221 l 978 221 l 978 267 l 942 267 l 942 315 l 978 315 l 978 371 l 889 371 l 889 108 l 978 108 l 978 167 l 942 167 l 942 221 m 1092 217 l 1125 217 l 1125 263 l 1092 263 l 1092 315 l 1125 315 l 1125 371 l 1038 371 l 1038 108 l 1092 108 l 1092 217 m 1478 315 l 1478 108 l 1532 108 l 1532 315 l 1561 315 l 1561 371 l 1449 371 l 1449 315 l 1478 315 m 951 676 l 931 676 l 931 644 q 885 681 915 681 q 825 621 825 681 q 856 571 825 583 q 824 525 824 558 q 886 467 825 467 q 934 485 917 467 q 951 540 951 503 l 931 540 q 896 514 926 514 q 868 533 868 514 q 896 558 868 558 l 910 558 l 910 583 l 896 583 q 868 607 868 583 q 896 629 868 629 q 931 601 919 629 l 951 601 l 951 676 m 1522 674 l 1500 674 l 1500 644 q 1458 681 1483 681 q 1389 572 1389 681 q 1460 468 1389 468 q 1522 549 1510 468 l 1500 549 q 1465 517 1496 517 q 1433 572 1433 517 q 1465 629 1433 629 q 1500 592 1497 629 l 1522 592 l 1522 674 m 210 167 l 179 167 l 179 371 l 126 371 l 126 108 l 210 108 l 210 167 m 868 108 l 868 371 l 814 371 l 814 108 l 868 108 m 1028 511 l 1008 511 l 1008 601 q 1028 629 1008 629 q 1044 621 1036 629 l 1060 667 q 1036 678 1049 676 q 993 644 1007 678 l 993 676 l 967 676 l 967 472 l 1028 472 l 1028 511 m 1310 676 l 1310 633 l 1331 633 l 1331 472 l 1378 472 l 1378 676 l 1310 676 m 397 607 q 426 628 406 628 q 456 575 456 628 q 425 515 456 515 q 397 538 406 515 l 397 607 m 614 572 q 583 517 614 517 q 554 572 554 517 q 583 629 554 629 q 614 572 614 629 m 768 540 q 740 521 760 521 q 711 574 711 521 q 742 633 711 633 q 768 611 760 633 l 768 540 m 88 511 l 88 633 l 114 633 l 114 511 l 88 511 m 1200 158 l 1200 324 l 1215 324 l 1215 158 l 1200 158 m 88 676 l 88 728 l 114 728 l 114 676 l 88 676 m 282 197 l 282 224 l 290 293 l 293 293 l 300 224 l 300 197 l 282 197 m 575 197 l 575 224 l 582 293 l 586 293 l 592 224 l 592 197 l 575 197 m 721 224 l 736 224 l 736 158 l 721 158 l 721 224 m 721 267 l 721 324 l 736 324 l 736 267 l 721 267 m 429 267 l 429 324 l 444 324 l 444 267 l 429 267 z "},"_":{"ha":918,"x_min":44,"x_max":874,"o":"m 158 -253 q 75 -219 106 -253 q 44 -139 44 -185 q 75 -59 44 -93 q 158 -25 106 -25 l 758 -25 q 843 -59 813 -25 q 874 -139 874 -93 q 843 -219 874 -185 q 758 -253 813 -253 l 158 -253 z "},"`":{"ha":385,"x_min":22,"x_max":361,"o":"m 65 922 q 32 944 42 929 q 22 975 22 958 q 37 1015 22 997 q 76 1033 51 1033 q 82 1033 78 1033 q 93 1031 86 1032 l 318 971 q 351 949 342 964 q 361 918 361 935 q 347 878 361 896 q 307 860 332 860 q 301 860 306 860 q 290 863 297 861 l 65 922 z "},"a":{"ha":810,"x_min":22,"x_max":785,"o":"m 354 342 l 465 342 l 414 490 l 354 342 m 528 161 l 282 161 l 247 72 q 205 16 232 33 q 146 -1 178 -1 q 101 6 122 -1 q 61 28 79 14 q 33 63 43 43 q 22 107 22 82 q 32 153 22 132 l 306 757 q 354 815 324 796 q 417 835 385 835 q 478 815 449 835 q 524 757 508 796 l 775 153 q 785 107 785 132 q 774 63 785 83 q 746 28 764 43 q 706 6 728 14 q 661 -1 683 -1 q 601 16 629 -1 q 560 72 574 33 l 528 161 z "},"b":{"ha":751,"x_min":49,"x_max":710,"o":"m 268 600 l 268 503 l 440 503 q 474 519 463 503 q 486 554 486 535 q 475 586 486 572 q 440 600 464 600 l 268 600 m 268 314 l 268 231 l 440 231 q 475 244 464 231 q 486 272 486 257 q 475 301 486 288 q 440 314 464 314 l 268 314 m 49 415 l 49 715 q 153 831 49 831 l 521 831 q 604 811 568 831 q 663 760 640 792 q 698 688 686 728 q 710 606 710 647 q 701 536 710 569 q 674 476 692 503 q 630 433 657 450 q 568 415 603 417 q 671 348 638 404 q 704 222 704 292 q 693 142 704 182 q 659 70 682 101 q 602 19 636 39 q 524 0 568 0 l 158 0 q 49 115 49 0 l 49 117 l 49 415 z "},"c":{"ha":689,"x_min":29,"x_max":643,"o":"m 443 597 q 359 582 394 597 q 299 541 324 567 q 263 483 275 515 q 251 415 251 450 q 263 347 251 381 q 299 288 275 314 q 359 247 324 263 q 442 231 394 231 l 526 231 q 577 221 556 231 q 613 194 599 211 q 635 157 628 178 q 642 115 642 136 q 613 35 642 71 q 526 0 583 0 l 443 0 q 263 35 340 0 q 133 128 185 71 q 55 258 81 185 q 29 410 29 332 q 56 564 29 489 q 137 699 83 639 q 272 794 190 758 q 461 831 353 831 l 526 831 q 577 821 556 831 q 613 794 599 811 q 635 757 628 778 q 643 714 643 736 q 635 671 643 692 q 613 633 628 650 q 577 607 599 617 q 526 597 556 597 l 443 597 z "},"d":{"ha":739,"x_min":47,"x_max":708,"o":"m 47 715 q 58 758 47 738 q 85 795 68 779 q 124 821 103 811 q 167 831 146 831 l 278 831 q 467 794 386 831 q 601 699 547 758 q 681 564 654 639 q 708 410 708 489 q 683 258 708 332 q 605 128 657 185 q 476 35 553 71 q 296 0 399 0 l 167 0 q 80 31 113 0 q 47 115 47 63 l 47 715 m 297 231 q 377 247 343 231 q 435 290 411 264 q 470 351 458 317 q 482 421 482 385 q 471 486 482 454 q 437 542 460 518 q 378 582 414 567 q 296 597 343 597 l 276 597 l 276 231 l 297 231 z "},"e":{"ha":711,"x_min":47,"x_max":665,"o":"m 161 0 q 47 115 47 0 l 47 715 q 161 831 47 831 l 550 831 q 635 797 604 831 q 665 715 665 763 q 635 634 665 668 q 550 600 604 600 l 275 600 l 275 531 l 494 531 q 579 497 549 531 q 610 415 610 463 q 579 334 610 368 q 494 300 549 300 l 275 300 l 275 231 l 550 231 q 635 197 604 231 q 665 115 665 163 q 635 34 665 68 q 550 0 604 0 l 161 0 z "},"f":{"ha":679,"x_min":47,"x_max":665,"o":"m 275 115 q 241 31 275 60 q 161 1 207 1 q 81 31 115 1 q 47 115 47 60 l 47 715 q 161 831 47 831 l 550 831 q 635 797 604 831 q 665 715 665 763 q 635 634 665 668 q 550 600 604 600 l 275 600 l 275 531 l 494 531 q 579 497 549 531 q 610 415 610 463 q 579 334 610 368 q 494 300 549 300 l 275 300 l 275 115 z "},"g":{"ha":690,"x_min":29,"x_max":643,"o":"m 643 115 q 610 31 643 61 q 526 0 576 0 l 443 0 q 263 35 340 0 q 133 128 185 71 q 55 258 81 185 q 29 410 29 332 q 56 564 29 489 q 137 699 83 639 q 272 794 190 758 q 461 831 353 831 l 526 831 q 577 821 556 831 q 613 794 599 811 q 635 757 628 778 q 643 714 643 736 q 635 671 643 692 q 613 633 628 650 q 577 607 599 617 q 526 597 556 597 l 443 597 q 359 582 394 597 q 299 541 324 567 q 263 483 275 515 q 251 415 251 450 q 262 353 251 383 q 292 297 272 322 q 343 253 313 271 q 414 232 374 236 l 414 367 q 448 451 414 422 q 529 481 482 481 q 609 451 575 481 q 643 367 643 422 l 643 115 z "},"h":{"ha":740,"x_min":47,"x_max":692,"o":"m 692 115 q 658 31 692 60 q 576 1 624 1 q 497 31 531 1 q 463 115 463 60 l 463 300 l 276 300 l 276 115 q 242 31 276 60 q 161 1 208 1 q 81 31 115 1 q 47 115 47 60 l 47 715 q 81 800 47 771 q 161 829 115 829 q 242 800 208 829 q 276 715 276 771 l 276 531 l 463 531 l 463 715 q 497 800 463 771 q 576 829 531 829 q 658 800 624 829 q 692 715 692 771 l 692 115 z "},"i":{"ha":324,"x_min":46,"x_max":275,"o":"m 275 115 q 241 31 275 60 q 161 1 207 1 q 80 31 114 1 q 46 115 46 60 l 46 715 q 80 800 46 771 q 161 829 114 829 q 241 800 207 829 q 275 715 275 771 l 275 115 z "},"j":{"ha":599,"x_min":10,"x_max":558,"o":"m 558 414 q 535 243 558 319 q 464 113 511 167 q 345 29 417 58 q 179 0 274 0 l 125 0 q 40 34 71 0 q 10 115 10 68 q 40 197 10 163 q 125 231 71 231 l 160 231 q 233 239 201 231 q 287 267 265 247 q 319 319 308 286 q 331 400 331 351 l 331 715 q 365 800 331 771 q 444 829 399 829 q 524 800 490 829 q 558 715 558 771 l 558 414 z "},"k":{"ha":717,"x_min":47,"x_max":672,"o":"m 276 115 q 242 31 276 60 q 163 1 208 1 q 81 31 115 1 q 47 115 47 60 l 47 715 q 81 800 47 771 q 163 829 115 829 q 242 800 208 829 q 276 715 276 771 l 276 525 l 463 790 q 503 822 482 811 q 551 833 524 833 q 597 824 575 833 q 635 799 618 814 q 661 762 651 783 q 671 718 671 740 q 644 647 671 678 l 442 419 l 644 188 q 672 115 672 156 q 662 71 672 92 q 635 35 651 50 q 597 10 618 19 q 553 0 575 0 q 464 44 500 0 l 276 306 l 276 115 z "},"l":{"ha":519,"x_min":47,"x_max":506,"o":"m 161 0 q 47 115 47 0 l 47 715 q 81 800 47 771 q 161 829 115 829 q 241 800 207 829 q 275 715 275 771 l 275 231 l 397 231 q 478 197 450 231 q 506 115 506 163 q 478 34 506 68 q 397 0 450 0 l 161 0 z "},"m":{"ha":894,"x_min":49,"x_max":846,"o":"m 278 115 q 244 31 278 60 q 163 1 210 1 q 83 31 117 1 q 49 115 49 60 l 49 703 q 72 799 49 769 q 158 829 96 829 q 245 811 215 829 q 300 761 275 793 l 451 568 l 601 763 q 655 811 625 793 q 733 829 685 829 q 821 799 796 829 q 846 703 846 769 l 846 115 q 812 31 846 60 q 731 1 778 1 q 651 31 685 1 q 617 115 617 60 l 617 465 l 514 329 q 444 288 481 288 q 376 331 407 288 l 278 465 l 278 115 z "},"n":{"ha":740,"x_min":47,"x_max":692,"o":"m 276 115 q 242 31 276 60 q 161 1 208 1 q 81 31 115 1 q 47 115 47 60 l 47 715 q 81 800 47 771 q 161 829 115 829 l 167 829 q 254 778 228 829 l 463 463 l 463 715 q 497 800 463 771 q 576 829 531 829 q 658 800 624 829 q 692 715 692 771 l 692 115 q 658 31 692 60 q 576 1 624 1 q 536 7 553 1 q 508 21 519 13 q 489 38 496 29 q 478 51 482 46 l 276 351 l 276 115 z "},"o":{"ha":915,"x_min":33,"x_max":882,"o":"m 33 418 q 67 583 33 506 q 157 719 100 661 q 292 810 214 776 q 457 843 369 843 q 622 810 544 843 q 758 719 700 776 q 849 583 815 661 q 882 418 882 506 q 849 253 882 331 q 758 118 815 175 q 622 28 700 61 q 457 -6 544 -6 q 292 28 369 -6 q 157 118 214 61 q 67 253 100 175 q 33 418 33 331 m 267 415 q 281 340 267 375 q 322 279 296 306 q 383 238 349 253 q 458 224 418 224 q 534 238 499 224 q 595 279 569 253 q 636 340 621 306 q 651 415 651 375 q 636 491 651 456 q 595 552 621 526 q 534 593 569 578 q 458 608 499 608 q 383 593 418 608 q 322 552 349 578 q 281 491 296 526 q 267 415 267 456 z "},"p":{"ha":697,"x_min":49,"x_max":683,"o":"m 279 118 q 164 0 279 0 q 77 30 106 0 q 49 115 49 60 l 49 715 q 160 831 49 831 l 393 831 q 523 808 468 831 q 613 747 578 785 q 666 662 649 710 q 683 564 683 614 q 667 467 683 514 q 620 383 651 419 q 544 323 589 346 q 440 300 499 300 l 403 300 q 299 393 299 300 q 311 444 299 426 q 343 470 324 461 q 385 483 363 479 q 426 492 407 486 q 460 511 446 499 q 475 550 474 524 q 403 613 475 613 l 279 613 l 279 118 z "},"q":{"ha":921,"x_min":33,"x_max":882,"o":"m 658 44 q 563 8 614 21 q 457 -6 511 -6 q 292 28 369 -6 q 157 118 214 61 q 67 253 100 175 q 33 418 33 331 q 67 583 33 506 q 157 719 100 661 q 292 810 214 776 q 457 843 369 843 q 622 810 544 843 q 758 719 700 776 q 849 583 815 661 q 882 418 882 506 q 867 307 882 360 q 826 208 853 254 l 840 194 q 867 156 858 176 q 875 114 875 135 q 865 69 875 90 q 839 31 856 47 q 801 4 822 14 q 756 -6 779 -6 q 675 29 711 -6 l 658 44 m 267 415 q 281 340 267 375 q 322 279 296 306 q 383 238 349 253 q 458 224 418 224 q 479 225 476 224 l 410 294 q 375 375 375 331 q 385 420 375 399 q 411 458 394 442 q 449 485 428 475 q 494 494 471 494 q 536 486 515 494 q 575 460 557 478 l 649 386 q 651 401 650 393 q 651 415 651 408 q 636 491 651 456 q 595 552 621 526 q 534 593 569 578 q 458 608 499 608 q 383 593 418 608 q 322 552 349 578 q 281 491 296 526 q 267 415 267 456 z "},"r":{"ha":728,"x_min":49,"x_max":689,"o":"m 333 293 q 299 393 299 340 q 311 444 299 426 q 343 470 324 461 q 385 483 363 479 q 426 492 407 486 q 460 511 446 499 q 475 550 474 524 q 403 613 475 613 l 279 613 l 279 118 q 164 0 279 0 q 77 30 106 0 q 49 115 49 60 l 49 715 q 160 831 49 831 l 407 831 q 533 809 479 831 q 621 752 586 788 q 672 672 656 717 q 689 579 689 626 q 653 446 689 508 q 549 351 618 383 l 647 194 q 669 121 669 158 q 660 74 669 96 q 634 35 650 51 q 597 9 618 18 q 554 0 576 0 q 505 15 529 0 q 463 61 481 29 l 333 293 z "},"s":{"ha":686,"x_min":40,"x_max":649,"o":"m 649 265 q 390 0 649 0 l 163 0 q 53 111 53 0 l 53 115 q 164 231 56 231 l 403 231 q 438 244 426 231 q 449 272 449 257 q 438 301 449 288 q 403 314 426 314 l 285 314 q 40 565 40 314 q 301 831 40 831 l 485 831 q 594 719 594 831 l 594 715 q 483 600 592 600 l 286 600 q 251 587 263 600 q 240 558 240 574 q 251 530 240 543 q 286 517 263 517 l 404 517 q 649 265 649 517 z "},"t":{"ha":664,"x_min":22,"x_max":640,"o":"m 447 115 q 413 31 447 60 q 332 1 379 1 q 252 31 286 1 q 218 115 218 60 l 218 600 l 138 600 q 53 634 83 600 q 22 715 22 668 q 53 797 22 763 q 138 831 83 831 l 525 831 q 610 797 579 831 q 640 715 640 763 q 610 634 640 668 q 525 600 579 600 l 447 600 l 447 115 z "},"u":{"ha":758,"x_min":43,"x_max":715,"o":"m 715 365 q 382 0 715 0 q 43 365 43 0 l 43 715 q 77 800 43 771 q 157 829 111 829 q 238 800 204 829 q 272 715 272 771 l 272 331 q 379 228 272 228 q 486 331 486 228 l 486 715 q 520 800 486 771 q 600 829 554 829 q 681 800 647 829 q 715 715 715 771 l 715 365 z "},"v":{"ha":785,"x_min":24,"x_max":760,"o":"m 535 757 q 577 814 550 796 q 636 832 604 832 q 681 824 658 832 q 721 801 703 815 q 749 766 739 786 q 760 721 760 746 q 750 676 760 697 l 503 76 q 397 0 469 0 q 281 76 324 0 l 33 676 q 24 721 24 697 q 34 766 24 746 q 63 801 44 786 q 102 824 81 815 q 147 832 124 832 q 206 814 179 832 q 249 757 233 796 l 392 390 l 535 757 z "},"w":{"ha":1160,"x_min":46,"x_max":1114,"o":"m 901 757 q 939 817 913 799 q 997 836 965 836 q 1039 828 1018 836 q 1076 806 1060 821 q 1103 771 1093 792 q 1114 725 1114 750 q 1107 683 1114 707 l 911 76 q 867 17 899 36 q 801 -3 836 -3 q 734 17 765 -3 q 689 76 703 38 l 583 382 l 485 76 q 441 17 472 36 q 375 -3 410 -3 q 308 17 339 -3 q 263 76 276 38 l 53 686 q 46 726 46 710 q 56 772 46 751 q 83 806 67 792 q 121 828 100 821 q 164 836 142 836 q 223 817 196 836 q 261 757 250 799 l 374 351 l 475 757 q 516 818 486 797 q 581 839 546 839 q 646 818 615 839 q 688 757 676 797 l 800 351 l 901 757 z "},"x":{"ha":699,"x_min":43,"x_max":654,"o":"m 436 771 q 478 816 454 801 q 531 831 503 831 q 575 821 553 831 q 615 796 597 811 q 642 759 632 781 q 653 715 653 738 q 633 656 653 683 l 469 414 l 635 171 q 654 111 654 143 q 642 67 654 88 q 613 31 631 46 q 572 6 594 15 q 528 -3 550 -3 q 478 11 501 -3 q 438 56 454 25 l 349 213 l 260 56 q 219 11 243 25 q 169 -3 196 -3 q 125 6 147 -3 q 85 31 103 15 q 55 67 67 46 q 43 111 43 88 q 63 171 43 143 l 228 414 l 64 656 q 44 715 44 683 q 55 759 44 738 q 83 796 65 781 q 122 821 100 811 q 167 831 144 831 q 219 816 194 831 q 261 771 243 801 l 349 617 l 436 771 z "},"y":{"ha":681,"x_min":22,"x_max":658,"o":"m 442 771 q 484 816 460 801 q 536 831 508 831 q 581 821 558 831 q 620 796 603 811 q 648 760 638 781 q 658 717 658 739 q 639 656 658 688 l 456 360 l 456 114 q 422 29 456 58 q 342 0 388 0 q 260 29 294 0 q 226 114 226 58 l 226 360 l 42 656 q 22 717 22 688 q 33 760 22 739 q 60 796 43 781 q 100 821 78 811 q 144 831 122 831 q 197 816 172 831 q 239 771 221 801 l 340 597 l 442 771 z "},"z":{"ha":767,"x_min":44,"x_max":722,"o":"m 593 231 q 678 197 647 231 q 708 115 708 163 q 678 34 708 68 q 593 0 647 0 l 171 0 q 78 27 113 0 q 44 107 44 54 q 93 207 44 158 l 406 600 l 163 600 q 78 634 108 600 q 47 715 47 668 q 78 797 47 763 q 163 831 108 831 l 614 831 q 692 803 661 831 q 722 728 722 776 q 701 654 722 693 l 379 231 l 593 231 z "},"{":{"ha":474,"x_min":47,"x_max":429,"o":"m 161 -89 q 47 24 47 -89 l 47 810 q 161 924 47 924 l 314 924 q 399 890 368 924 q 429 810 429 856 q 399 730 429 764 q 314 696 368 696 l 275 696 l 275 139 l 314 139 q 399 105 368 139 q 429 24 429 71 q 399 -55 429 -21 q 314 -89 368 -89 l 161 -89 z "},"|":{"ha":324,"x_min":46,"x_max":275,"o":"m 275 115 q 241 31 275 60 q 161 1 207 1 q 80 31 114 1 q 46 115 46 60 l 46 715 q 80 800 46 771 q 161 829 114 829 q 241 800 207 829 q 275 715 275 771 l 275 115 z "},"}":{"ha":474,"x_min":43,"x_max":425,"o":"m 425 24 q 311 -89 425 -89 l 158 -89 q 74 -55 104 -89 q 43 24 43 -21 q 74 105 43 71 q 158 139 104 139 l 197 139 l 197 696 l 158 696 q 74 730 104 696 q 43 810 43 764 q 74 890 43 856 q 158 924 104 924 l 311 924 q 425 810 425 924 l 425 24 z "},"~":{"ha":789,"x_min":46,"x_max":551,"o":"m 144 482 q 104 468 118 468 q 64 484 82 468 q 46 524 46 500 q 62 572 46 550 q 101 608 78 593 q 152 632 125 624 q 201 640 179 640 q 221 639 219 640 l 224 639 q 285 620 246 639 q 385 585 325 601 q 419 594 407 585 q 442 615 432 604 q 464 636 453 626 q 494 646 475 646 q 534 629 517 646 q 551 589 551 613 q 533 540 551 561 q 488 504 515 519 q 431 481 461 489 q 379 474 401 474 q 328 482 351 474 q 286 501 306 490 q 247 519 267 511 q 206 528 228 528 q 173 520 188 528 q 144 482 158 513 z "},"…":{"ha":892,"x_min":33,"x_max":858,"o":"m 264 40 q 255 -3 264 17 q 230 -40 246 -24 q 193 -65 214 -56 q 149 -74 172 -74 q 104 -65 125 -74 q 67 -40 83 -56 q 42 -3 51 -24 q 33 40 33 17 q 67 122 33 88 q 149 156 101 156 q 230 122 196 156 q 264 40 264 88 m 561 40 q 552 -3 561 17 q 527 -40 543 -24 q 490 -65 511 -56 q 446 -74 469 -74 q 401 -65 422 -74 q 365 -40 381 -56 q 340 -3 349 -24 q 331 40 331 17 q 365 122 331 88 q 446 156 399 156 q 527 122 493 156 q 561 40 561 88 m 858 40 q 849 -3 858 17 q 824 -40 840 -24 q 788 -65 808 -56 q 743 -74 767 -74 q 699 -65 719 -74 q 662 -40 678 -56 q 637 -3 646 -24 q 628 40 628 17 q 662 122 628 88 q 743 156 696 156 q 824 122 790 156 q 858 40 858 88 z "},"ˆ":{"ha":350,"x_min":28,"x_max":319,"o":"m 124 863 q 83 844 106 844 q 44 861 61 844 q 28 900 28 878 q 46 940 28 922 l 121 1010 q 175 1038 153 1038 q 231 1011 200 1038 l 304 933 q 319 901 319 922 q 303 863 319 879 q 264 846 286 846 q 224 864 242 846 l 174 913 l 124 863 z "},"‹":{"ha":619,"x_min":10,"x_max":544,"o":"m 510 196 q 544 115 544 161 q 535 71 544 92 q 510 34 525 50 q 473 9 494 18 q 429 0 451 0 q 347 35 382 0 l 47 335 q 10 415 10 372 q 47 496 10 458 l 347 796 l 347 794 q 429 832 382 832 q 473 822 451 832 q 510 797 494 813 q 535 759 525 781 q 544 715 544 738 q 510 635 544 669 l 292 415 l 510 196 z "},"Œ":{"ha":1213,"x_min":33,"x_max":1175,"o":"m 768 0 q 667 50 693 0 q 622 28 646 38 q 457 -6 544 -6 q 292 28 369 -6 q 157 118 214 61 q 67 253 100 175 q 33 418 33 331 q 67 583 33 506 q 157 719 100 661 q 292 810 214 776 q 457 843 369 843 q 622 810 544 843 q 669 785 647 799 q 768 831 696 831 l 1060 831 q 1144 797 1114 831 q 1175 715 1175 763 q 1144 634 1175 668 q 1060 600 1114 600 l 882 600 l 882 531 l 1004 531 q 1089 497 1058 531 q 1119 415 1119 463 q 1089 334 1119 368 q 1004 300 1058 300 l 882 300 l 882 231 l 1060 231 q 1144 197 1114 231 q 1175 115 1175 163 q 1144 34 1175 68 q 1060 0 1114 0 l 768 0 m 267 415 q 281 340 267 375 q 322 279 296 306 q 383 238 349 253 q 458 224 418 224 q 534 238 499 224 q 595 279 569 253 q 636 340 621 306 q 651 415 651 375 q 636 491 651 456 q 595 552 621 526 q 534 593 569 578 q 458 608 499 608 q 383 593 418 608 q 322 552 349 578 q 281 491 296 526 q 267 415 267 456 z "},"‘":{"ha":321,"x_min":18,"x_max":303,"o":"m 290 621 q 275 536 303 567 q 201 506 247 506 q 114 536 154 506 q 61 621 74 567 l 31 771 q 46 856 18 826 q 121 885 74 885 q 207 856 167 885 q 260 771 247 826 l 290 621 z "},"’":{"ha":321,"x_min":18,"x_max":303,"o":"m 260 621 q 207 536 247 565 q 121 507 167 507 q 46 536 74 507 q 31 621 18 565 l 61 771 q 114 856 74 825 q 201 886 154 886 q 275 856 247 886 q 290 771 303 825 l 260 621 z "},"“":{"ha":590,"x_min":21,"x_max":568,"o":"m 556 621 q 540 536 568 567 q 467 506 513 506 q 379 536 419 506 q 326 621 339 567 l 296 771 q 311 856 283 826 q 386 885 339 885 q 472 856 432 885 q 525 771 513 826 l 556 621 m 293 621 q 278 536 306 567 q 204 506 250 506 q 117 536 157 506 q 64 621 76 567 l 33 771 q 49 856 21 826 q 124 885 76 885 q 210 856 169 885 q 263 771 250 826 l 293 621 z "},"”":{"ha":590,"x_min":21,"x_max":568,"o":"m 263 621 q 210 536 250 565 q 124 507 169 507 q 49 536 76 507 q 33 621 21 565 l 64 771 q 117 856 76 825 q 204 886 157 886 q 278 856 250 886 q 293 771 306 825 l 263 621 m 525 621 q 472 536 513 565 q 386 507 432 507 q 311 536 339 507 q 296 621 283 565 l 326 771 q 379 856 339 825 q 467 886 419 886 q 540 856 513 886 q 556 771 568 825 l 525 621 z "},"•":{"ha":575,"x_min":33,"x_max":540,"o":"m 33 489 q 53 588 33 542 q 107 669 72 635 q 188 723 142 703 q 286 743 233 743 q 385 723 339 743 q 466 669 432 703 q 520 588 500 635 q 540 489 540 542 q 520 390 540 436 q 466 310 500 344 q 385 256 432 275 q 286 236 339 236 q 188 256 233 236 q 107 310 142 275 q 53 390 72 344 q 33 489 33 436 z "},"–":{"ha":763,"x_min":43,"x_max":718,"o":"m 158 297 q 74 332 104 297 q 43 413 43 367 q 74 495 43 460 q 158 531 104 531 l 603 531 q 688 495 657 531 q 718 413 718 460 q 688 332 718 367 q 603 297 657 297 l 158 297 z "},"—":{"ha":974,"x_min":44,"x_max":928,"o":"m 160 297 q 75 332 106 297 q 44 413 44 367 q 75 495 44 460 q 160 531 106 531 l 813 531 q 897 495 867 531 q 928 413 928 460 q 897 332 928 367 q 813 297 867 297 l 160 297 z "},"˜":{"ha":582,"x_min":39,"x_max":544,"o":"m 138 874 q 97 860 111 860 q 57 876 75 860 q 39 915 39 892 q 55 963 39 942 q 94 1000 71 985 q 145 1024 118 1015 q 194 1032 172 1032 q 214 1031 213 1032 l 217 1031 q 278 1012 239 1031 q 378 976 318 993 q 413 986 400 976 q 435 1007 425 996 q 457 1028 446 1018 q 488 1038 468 1038 q 527 1021 510 1038 q 544 981 544 1004 q 526 932 544 953 q 481 896 508 911 q 424 873 454 881 q 372 865 394 865 q 322 874 344 865 q 279 892 299 882 q 240 911 260 903 q 199 919 221 919 q 166 912 181 919 q 138 874 151 904 z "},"™":{"ha":864,"x_min":35,"x_max":824,"o":"m 353 1036 q 410 1093 353 1093 l 679 1093 q 713 1085 694 1093 q 738 1050 731 1078 l 821 749 q 823 739 822 743 q 824 731 824 735 q 805 690 824 704 q 763 676 786 676 q 731 687 746 676 q 711 719 717 697 l 639 978 l 617 978 l 617 736 q 600 694 617 708 q 560 679 583 679 q 519 694 536 679 q 503 736 503 708 l 503 978 l 467 978 l 467 736 q 450 694 467 708 q 410 679 433 679 q 369 694 386 679 q 353 736 353 708 l 353 1036 m 247 738 q 230 695 247 710 q 189 681 213 681 q 149 695 167 681 q 132 738 132 710 l 132 979 l 92 979 q 50 997 65 979 q 35 1038 35 1014 q 50 1078 35 1061 q 92 1096 65 1096 l 286 1096 q 328 1078 313 1096 q 343 1038 343 1061 q 328 997 343 1014 q 286 979 313 979 l 247 979 l 247 738 z "},"›":{"ha":611,"x_min":43,"x_max":579,"o":"m 240 35 q 158 0 206 0 q 114 9 135 0 q 78 34 93 18 q 53 70 63 50 q 43 114 43 90 q 81 196 43 160 l 79 196 l 297 415 l 79 635 l 81 635 q 43 715 43 669 q 53 759 43 738 q 78 796 63 781 q 114 821 93 811 q 158 831 135 831 q 240 796 206 831 l 540 496 q 579 415 579 457 q 539 335 579 371 l 540 335 l 240 35 z "},"œ":{"ha":1365,"x_min":33,"x_max":1269,"o":"m 33 418 q 67 583 33 506 q 157 719 100 661 q 292 810 214 776 q 457 843 369 843 q 622 810 544 843 q 758 719 700 776 q 849 583 815 661 q 882 418 882 506 q 849 253 882 331 q 758 118 815 175 q 622 28 700 61 q 457 -6 544 -6 q 292 28 369 -6 q 157 118 214 61 q 67 253 100 175 q 33 418 33 331 m 267 415 q 281 340 267 375 q 322 279 296 306 q 383 238 349 253 q 458 224 418 224 q 534 238 499 224 q 595 279 569 253 q 636 340 621 306 q 651 415 651 375 q 636 491 651 456 q 595 552 621 526 q 534 593 569 578 q 458 608 499 608 q 383 593 418 608 q 322 552 349 578 q 281 491 296 526 q 267 415 267 456 m 765 0 q 651 115 651 0 l 651 715 q 765 831 651 831 l 1154 831 q 1239 797 1208 831 q 1269 715 1269 763 q 1239 634 1269 668 q 1154 600 1208 600 l 879 600 l 879 531 l 1099 531 q 1183 497 1153 531 q 1214 415 1214 463 q 1183 334 1214 368 q 1099 300 1153 300 l 879 300 l 879 231 l 1154 231 q 1239 197 1208 231 q 1269 115 1269 163 q 1239 34 1269 68 q 1154 0 1208 0 l 765 0 z "},"Ÿ":{"ha":681,"x_min":22,"x_max":658,"o":"m 442 771 q 484 816 460 801 q 536 831 508 831 q 581 821 558 831 q 620 796 603 811 q 648 760 638 781 q 658 717 658 739 q 639 656 658 688 l 456 360 l 456 114 q 422 29 456 58 q 342 0 388 0 q 260 29 294 0 q 226 114 226 58 l 226 360 l 42 656 q 22 717 22 688 q 33 760 22 739 q 60 796 43 781 q 100 821 78 811 q 144 831 122 831 q 197 816 172 831 q 239 771 221 801 l 340 597 l 442 771 m 144 914 q 164 961 144 942 q 211 981 183 981 q 258 961 239 981 q 278 914 278 942 q 258 867 278 886 q 211 847 239 847 q 164 867 183 847 q 144 914 144 886 m 367 914 q 386 961 367 942 q 433 981 406 981 q 481 961 461 981 q 500 914 500 942 q 481 867 500 886 q 433 847 461 847 q 386 867 406 847 q 367 914 367 886 z "},"¡":{"ha":319,"x_min":43,"x_max":274,"o":"m 46 347 q 79 432 46 401 q 160 463 113 463 q 240 432 206 463 q 274 347 274 401 l 274 -19 q 240 -104 274 -75 q 160 -133 206 -133 q 79 -104 113 -133 q 46 -19 46 -75 l 46 347 m 43 581 q 76 662 43 628 q 157 696 110 696 q 238 662 204 696 q 272 581 272 628 q 238 499 272 533 q 157 465 204 465 q 76 499 110 465 q 43 581 43 533 z "},"£":{"ha":622,"x_min":-17,"x_max":603,"o":"m 40 357 q -3 374 11 357 q -17 413 -17 392 q -3 451 -17 433 q 40 468 11 468 l 49 468 q 71 590 53 533 q 142 721 94 667 q 260 804 189 775 q 426 833 332 833 l 481 833 q 565 799 535 833 q 596 718 596 765 q 565 637 596 671 q 481 603 535 603 l 446 603 q 372 594 404 603 q 319 567 340 586 q 286 514 297 547 q 276 468 279 494 l 432 468 q 475 451 461 468 q 489 413 489 433 q 475 374 489 392 q 432 357 461 357 l 275 357 l 275 231 l 494 231 q 575 197 547 231 q 603 115 603 163 q 575 34 603 68 q 494 0 547 0 l 161 0 q 47 118 47 0 l 47 357 l 40 357 z "},"¤":{"ha":704,"x_min":29,"x_max":643,"o":"m 443 597 q 359 582 394 597 q 299 541 324 567 q 263 483 275 515 q 251 415 251 450 q 263 347 251 381 q 299 288 275 314 q 359 247 324 263 q 442 231 394 231 l 526 231 q 577 221 556 231 q 613 194 599 211 q 635 157 628 178 q 642 115 642 136 q 613 35 642 71 q 526 0 583 0 l 443 0 q 263 35 340 0 q 133 128 185 71 q 55 258 81 185 q 29 410 29 332 q 56 564 29 489 q 137 699 83 639 q 272 794 190 758 q 461 831 353 831 l 526 831 q 577 821 556 831 q 613 794 599 811 q 635 757 628 778 q 643 714 643 736 q 635 671 643 692 q 613 633 628 650 q 577 607 599 617 q 526 597 556 597 l 443 597 m 273 265 q 224 285 244 265 q 205 333 205 304 q 223 381 205 360 q 273 401 241 401 l 494 401 q 543 381 525 401 q 562 333 562 360 q 542 285 562 304 q 494 265 522 265 l 273 265 m 273 439 q 224 459 244 439 q 205 507 205 478 q 223 554 205 534 q 273 575 241 575 l 494 575 q 543 554 525 575 q 562 507 562 534 q 542 459 562 478 q 494 439 522 439 l 273 439 z "},"¨":{"ha":447,"x_min":44,"x_max":400,"o":"m 44 914 q 64 961 44 942 q 111 981 83 981 q 158 961 139 981 q 178 914 178 942 q 158 867 178 886 q 111 847 139 847 q 64 867 83 847 q 44 914 44 886 m 267 914 q 286 961 267 942 q 333 981 306 981 q 381 961 361 981 q 400 914 400 942 q 381 867 400 886 q 333 847 361 847 q 286 867 306 847 q 267 914 267 886 z "},"©":{"ha":882,"x_min":57,"x_max":829,"o":"m 57 385 q 88 535 57 464 q 170 658 118 606 q 293 740 222 710 q 443 771 364 771 q 593 740 522 771 q 716 658 664 710 q 799 535 768 606 q 829 385 829 464 q 799 235 829 306 q 716 112 768 164 q 593 29 664 60 q 443 -1 522 -1 q 293 29 364 -1 q 170 112 222 60 q 88 235 118 164 q 57 385 57 306 m 103 383 q 130 250 103 313 q 203 142 157 188 q 311 69 249 96 q 444 42 374 42 q 578 69 515 42 q 687 142 640 96 q 760 250 733 188 q 788 383 788 313 q 760 517 788 454 q 687 626 733 579 q 578 701 640 674 q 444 728 515 728 q 311 701 374 728 q 203 626 249 674 q 130 517 157 579 q 103 383 103 454 m 525 481 q 438 531 489 531 q 360 490 389 531 q 331 379 331 450 q 362 271 331 313 q 439 229 393 229 q 485 241 463 229 q 525 272 508 253 l 594 225 q 438 139 542 139 q 360 157 396 139 q 299 208 325 175 q 259 284 274 240 q 244 379 244 328 q 258 475 244 431 q 296 552 271 519 q 357 603 321 585 q 438 621 393 621 q 597 528 546 621 l 525 481 z "},"«":{"ha":983,"x_min":10,"x_max":928,"o":"m 893 196 q 928 115 928 161 q 918 71 928 92 q 893 34 908 50 q 856 9 878 18 q 813 0 835 0 q 731 35 765 0 l 431 335 q 393 415 393 372 q 431 496 393 458 l 731 796 l 731 794 q 813 832 765 832 q 856 822 835 832 q 893 797 878 813 q 918 759 908 781 q 928 715 928 738 q 893 635 928 669 l 675 415 l 893 196 m 510 196 q 544 115 544 161 q 535 71 544 92 q 510 34 525 50 q 473 9 494 18 q 429 0 451 0 q 347 35 382 0 l 47 335 q 10 415 10 372 q 47 496 10 458 l 347 796 l 347 794 q 429 832 382 832 q 473 822 451 832 q 510 797 494 813 q 535 759 525 781 q 544 715 544 738 q 510 635 544 669 l 292 415 l 510 196 z "},"´":{"ha":385,"x_min":24,"x_max":363,"o":"m 94 863 q 83 860 88 861 q 78 860 79 860 q 38 878 53 860 q 24 918 24 896 q 33 949 24 935 q 67 971 43 964 l 292 1031 q 303 1033 299 1032 q 308 1033 307 1033 q 348 1015 333 1033 q 363 975 363 997 q 353 944 363 958 q 319 922 343 929 l 94 863 z "},"¸":{"ha":247,"x_min":28,"x_max":221,"o":"m 61 32 q 85 96 68 83 q 121 108 101 108 q 159 94 142 108 q 176 53 176 81 q 183 2 176 22 q 199 -34 190 -18 q 214 -65 207 -50 q 221 -101 221 -81 q 210 -152 221 -126 q 181 -200 200 -178 q 138 -237 163 -222 q 85 -253 113 -251 q 42 -235 56 -253 q 28 -197 28 -218 q 42 -159 28 -176 q 85 -142 56 -142 l 79 -142 q 94 -126 86 -135 q 103 -103 103 -118 q 97 -69 103 -86 q 82 -36 90 -53 q 67 -3 74 -19 q 61 32 61 14 z "},"»":{"ha":1031,"x_min":43,"x_max":985,"o":"m 646 35 q 564 0 611 0 q 519 9 540 0 q 483 34 499 18 q 458 70 468 50 q 449 114 449 90 q 486 196 449 160 l 485 196 l 703 415 l 485 635 l 486 635 q 449 715 449 669 q 458 759 449 738 q 483 796 468 781 q 519 821 499 811 q 564 831 540 831 q 646 796 611 831 l 946 496 q 985 415 985 457 q 944 335 985 371 l 946 335 l 646 35 m 240 35 q 158 0 206 0 q 114 9 135 0 q 78 34 93 18 q 53 70 63 50 q 43 114 43 90 q 81 196 43 160 l 79 196 l 297 415 l 79 635 l 81 635 q 43 715 43 669 q 53 759 43 738 q 78 796 63 781 q 114 821 93 811 q 158 831 135 831 q 240 796 206 831 l 540 496 q 579 415 579 457 q 539 335 579 371 l 540 335 l 240 35 z "},"¿":{"ha":751,"x_min":42,"x_max":707,"o":"m 301 581 q 335 662 301 628 q 417 696 369 696 q 498 662 464 696 q 532 581 532 628 q 498 499 532 533 q 417 465 464 465 q 335 499 369 465 q 301 581 301 533 m 406 396 q 526 281 526 396 q 407 165 526 165 l 288 165 q 242 131 242 165 q 288 96 242 96 l 588 96 q 707 -19 704 96 l 707 -24 q 589 -135 707 -135 l 300 -135 q 42 131 42 -135 q 299 396 42 396 l 406 396 z "},"À":{"ha":810,"x_min":22,"x_max":785,"o":"m 354 342 l 465 342 l 414 490 l 354 342 m 528 161 l 282 161 l 247 72 q 205 16 232 33 q 146 -1 178 -1 q 101 6 122 -1 q 61 28 79 14 q 33 63 43 43 q 22 107 22 82 q 32 153 22 132 l 306 757 q 354 815 324 796 q 417 835 385 835 q 478 815 449 835 q 524 757 508 796 l 775 153 q 785 107 785 132 q 774 63 785 83 q 746 28 764 43 q 706 6 728 14 q 661 -1 683 -1 q 601 16 629 -1 q 560 72 574 33 l 528 161 m 285 922 q 251 944 261 929 q 242 975 242 958 q 256 1015 242 997 q 296 1033 271 1033 q 301 1033 297 1033 q 313 1031 306 1032 l 538 971 q 571 949 561 964 q 581 918 581 935 q 566 878 581 896 q 526 860 551 860 q 521 860 525 860 q 510 863 517 861 l 285 922 z "},"Á":{"ha":810,"x_min":22,"x_max":785,"o":"m 354 342 l 465 342 l 414 490 l 354 342 m 528 161 l 282 161 l 247 72 q 205 16 232 33 q 146 -1 178 -1 q 101 6 122 -1 q 61 28 79 14 q 33 63 43 43 q 22 107 22 82 q 32 153 22 132 l 306 757 q 354 815 324 796 q 417 835 385 835 q 478 815 449 835 q 524 757 508 796 l 775 153 q 785 107 785 132 q 774 63 785 83 q 746 28 764 43 q 706 6 728 14 q 661 -1 683 -1 q 601 16 629 -1 q 560 72 574 33 l 528 161 m 317 863 q 306 860 310 861 q 300 860 301 860 q 260 878 275 860 q 246 918 246 896 q 256 949 246 935 q 289 971 265 964 l 514 1031 q 525 1033 521 1032 q 531 1033 529 1033 q 570 1015 556 1033 q 585 975 585 997 q 575 944 585 958 q 542 922 565 929 l 317 863 z "},"Â":{"ha":810,"x_min":22,"x_max":785,"o":"m 354 342 l 465 342 l 414 490 l 354 342 m 528 161 l 282 161 l 247 72 q 205 16 232 33 q 146 -1 178 -1 q 101 6 122 -1 q 61 28 79 14 q 33 63 43 43 q 22 107 22 82 q 32 153 22 132 l 306 757 q 354 815 324 796 q 417 835 385 835 q 478 815 449 835 q 524 757 508 796 l 775 153 q 785 107 785 132 q 774 63 785 83 q 746 28 764 43 q 706 6 728 14 q 661 -1 683 -1 q 601 16 629 -1 q 560 72 574 33 l 528 161 m 365 863 q 325 844 347 844 q 286 861 303 844 q 269 900 269 878 q 288 940 269 922 l 363 1010 q 417 1038 394 1038 q 472 1011 442 1038 l 546 933 q 561 901 561 922 q 544 863 561 879 q 506 846 528 846 q 465 864 483 846 l 415 913 l 365 863 z "},"Ã":{"ha":810,"x_min":22,"x_max":785,"o":"m 354 342 l 465 342 l 414 490 l 354 342 m 528 161 l 282 161 l 247 72 q 205 16 232 33 q 146 -1 178 -1 q 101 6 122 -1 q 61 28 79 14 q 33 63 43 43 q 22 107 22 82 q 32 153 22 132 l 306 757 q 354 815 324 796 q 417 835 385 835 q 478 815 449 835 q 524 757 508 796 l 775 153 q 785 107 785 132 q 774 63 785 83 q 746 28 764 43 q 706 6 728 14 q 661 -1 683 -1 q 601 16 629 -1 q 560 72 574 33 l 528 161 m 264 874 q 224 860 238 860 q 183 876 201 860 q 165 915 165 892 q 181 963 165 942 q 221 1000 197 985 q 272 1024 244 1015 q 321 1032 299 1032 q 340 1031 339 1032 l 343 1031 q 405 1012 365 1031 q 504 976 444 993 q 539 986 526 976 q 562 1007 551 996 q 583 1028 572 1018 q 614 1038 594 1038 q 653 1021 636 1038 q 671 981 671 1004 q 653 932 671 953 q 608 896 635 911 q 551 873 581 881 q 499 865 521 865 q 448 874 471 865 q 406 892 425 882 q 367 911 386 903 q 325 919 347 919 q 292 912 307 919 q 264 874 278 904 z "},"Ä":{"ha":810,"x_min":22,"x_max":785,"o":"m 354 342 l 465 342 l 414 490 l 354 342 m 528 161 l 282 161 l 247 72 q 205 16 232 33 q 146 -1 178 -1 q 101 6 122 -1 q 61 28 79 14 q 33 63 43 43 q 22 107 22 82 q 32 153 22 132 l 306 757 q 354 815 324 796 q 417 835 385 835 q 478 815 449 835 q 524 757 508 796 l 775 153 q 785 107 785 132 q 774 63 785 83 q 746 28 764 43 q 706 6 728 14 q 661 -1 683 -1 q 601 16 629 -1 q 560 72 574 33 l 528 161 m 238 914 q 257 961 238 942 q 304 981 276 981 q 351 961 332 981 q 371 914 371 942 q 351 867 371 886 q 304 847 332 847 q 257 867 276 847 q 238 914 238 886 m 460 914 q 479 961 460 942 q 526 981 499 981 q 574 961 554 981 q 593 914 593 942 q 574 867 593 886 q 526 847 554 847 q 479 867 499 847 q 460 914 460 886 z "},"Å":{"ha":810,"x_min":22,"x_max":785,"o":"m 354 342 l 465 342 l 414 490 l 354 342 m 528 161 l 282 161 l 247 72 q 205 16 232 33 q 146 -1 178 -1 q 101 6 122 -1 q 61 28 79 14 q 33 63 43 43 q 22 107 22 82 q 32 153 22 132 l 306 757 q 354 815 324 796 q 417 835 385 835 q 478 815 449 835 q 524 757 508 796 l 775 153 q 785 107 785 132 q 774 63 785 83 q 746 28 764 43 q 706 6 728 14 q 661 -1 683 -1 q 601 16 629 -1 q 560 72 574 33 l 528 161 m 285 925 q 295 974 285 951 q 323 1014 306 997 q 364 1040 340 1031 q 415 1050 388 1050 q 466 1040 442 1050 q 508 1014 490 1031 q 535 974 525 997 q 546 925 546 951 q 535 876 546 899 q 508 836 525 853 q 466 810 490 819 q 415 800 442 800 q 364 810 388 800 q 323 836 340 819 q 295 876 306 853 q 285 925 285 899 m 365 924 q 380 886 365 901 q 415 871 394 871 q 451 886 436 871 q 467 924 467 901 q 451 961 467 946 q 415 976 436 976 q 380 961 394 976 q 365 924 365 946 z "},"Æ":{"ha":1093,"x_min":19,"x_max":1057,"o":"m 664 0 q 636 1 649 0 l 636 -1 q 581 15 604 -1 q 556 68 558 32 q 550 115 550 89 l 550 131 l 547 161 l 301 161 l 243 72 q 185 16 217 33 q 121 -1 153 -1 q 78 6 97 -1 q 44 28 58 14 q 25 63 31 43 q 26 107 19 82 q 49 153 33 132 l 485 757 q 617 831 533 831 l 942 831 q 1026 797 996 831 q 1057 715 1057 763 q 1026 634 1057 668 q 942 600 996 600 l 778 600 l 778 531 l 886 531 q 971 497 940 531 q 1001 415 1001 463 q 971 334 1001 368 q 886 300 940 300 l 778 300 l 778 231 l 942 231 q 1026 197 996 231 q 1057 115 1057 163 q 1026 34 1057 68 q 942 0 996 0 l 664 0 m 550 342 l 550 514 l 422 342 l 550 342 z "},"Ç":{"ha":689,"x_min":29,"x_max":643,"o":"m 443 597 q 359 582 394 597 q 299 541 324 567 q 263 483 275 515 q 251 415 251 450 q 263 347 251 381 q 299 288 275 314 q 359 247 324 263 q 442 231 394 231 l 526 231 q 577 221 556 231 q 613 194 599 211 q 635 157 628 178 q 642 115 642 136 q 613 35 642 71 q 526 0 583 0 l 443 0 q 263 35 340 0 q 133 128 185 71 q 55 258 81 185 q 29 410 29 332 q 56 564 29 489 q 137 699 83 639 q 272 794 190 758 q 461 831 353 831 l 526 831 q 577 821 556 831 q 613 794 599 811 q 635 757 628 778 q 643 714 643 736 q 635 671 643 692 q 613 633 628 650 q 577 607 599 617 q 526 597 556 597 l 443 597 m 356 32 q 379 96 363 83 q 415 108 396 108 q 453 94 436 108 q 471 53 471 81 q 478 2 471 22 q 493 -34 485 -18 q 508 -65 501 -50 q 515 -101 515 -81 q 505 -152 515 -126 q 476 -200 494 -178 q 432 -237 457 -222 q 379 -253 407 -251 q 336 -235 350 -253 q 322 -197 322 -218 q 336 -159 322 -176 q 379 -142 350 -142 l 374 -142 q 389 -126 381 -135 q 397 -103 397 -118 q 391 -69 397 -86 q 376 -36 385 -53 q 362 -3 368 -19 q 356 32 356 14 z "},"È":{"ha":711,"x_min":47,"x_max":665,"o":"m 161 0 q 47 115 47 0 l 47 715 q 161 831 47 831 l 550 831 q 635 797 604 831 q 665 715 665 763 q 635 634 665 668 q 550 600 604 600 l 275 600 l 275 531 l 494 531 q 579 497 549 531 q 610 415 610 463 q 579 334 610 368 q 494 300 549 300 l 275 300 l 275 231 l 550 231 q 635 197 604 231 q 665 115 665 163 q 635 34 665 68 q 550 0 604 0 l 161 0 m 204 922 q 171 944 181 929 q 161 975 161 958 q 176 1015 161 997 q 215 1033 190 1033 q 221 1033 217 1033 q 232 1031 225 1032 l 457 971 q 490 949 481 964 q 500 918 500 935 q 485 878 500 896 q 446 860 471 860 q 440 860 444 860 q 429 863 436 861 l 204 922 z "},"É":{"ha":711,"x_min":47,"x_max":665,"o":"m 161 0 q 47 115 47 0 l 47 715 q 161 831 47 831 l 550 831 q 635 797 604 831 q 665 715 665 763 q 635 634 665 668 q 550 600 604 600 l 275 600 l 275 531 l 494 531 q 579 497 549 531 q 610 415 610 463 q 579 334 610 368 q 494 300 549 300 l 275 300 l 275 231 l 550 231 q 635 197 604 231 q 665 115 665 163 q 635 34 665 68 q 550 0 604 0 l 161 0 m 265 863 q 254 860 258 861 q 249 860 250 860 q 209 878 224 860 q 194 918 194 896 q 204 949 194 935 q 238 971 214 964 l 463 1031 q 474 1033 469 1032 q 479 1033 478 1033 q 519 1015 504 1033 q 533 975 533 997 q 524 944 533 958 q 490 922 514 929 l 265 863 z "},"Ê":{"ha":711,"x_min":47,"x_max":665,"o":"m 161 0 q 47 115 47 0 l 47 715 q 161 831 47 831 l 550 831 q 635 797 604 831 q 665 715 665 763 q 635 634 665 668 q 550 600 604 600 l 275 600 l 275 531 l 494 531 q 579 497 549 531 q 610 415 610 463 q 579 334 610 368 q 494 300 549 300 l 275 300 l 275 231 l 550 231 q 635 197 604 231 q 665 115 665 163 q 635 34 665 68 q 550 0 604 0 l 161 0 m 317 863 q 276 844 299 844 q 238 861 254 844 q 221 900 221 878 q 239 940 221 922 l 314 1010 q 368 1038 346 1038 q 424 1011 393 1038 l 497 933 q 513 901 513 922 q 496 863 513 879 q 457 846 479 846 q 417 864 435 846 l 367 913 l 317 863 z "},"Ë":{"ha":711,"x_min":47,"x_max":665,"o":"m 161 0 q 47 115 47 0 l 47 715 q 161 831 47 831 l 550 831 q 635 797 604 831 q 665 715 665 763 q 635 634 665 668 q 550 600 604 600 l 275 600 l 275 531 l 494 531 q 579 497 549 531 q 610 415 610 463 q 579 334 610 368 q 494 300 549 300 l 275 300 l 275 231 l 550 231 q 635 197 604 231 q 665 115 665 163 q 635 34 665 68 q 550 0 604 0 l 161 0 m 169 914 q 189 961 169 942 q 236 981 208 981 q 283 961 264 981 q 303 914 303 942 q 283 867 303 886 q 236 847 264 847 q 189 867 208 847 q 169 914 169 886 m 392 914 q 411 961 392 942 q 458 981 431 981 q 506 961 486 981 q 525 914 525 942 q 506 867 525 886 q 458 847 486 847 q 411 867 431 847 q 392 914 392 886 z "},"Ì":{"ha":324,"x_min":-1,"x_max":338,"o":"m 275 115 q 241 31 275 60 q 161 1 207 1 q 80 31 114 1 q 46 115 46 60 l 46 715 q 80 800 46 771 q 161 829 114 829 q 241 800 207 829 q 275 715 275 771 l 275 115 m 42 922 q 8 944 18 929 q -1 975 -1 958 q 13 1015 -1 997 q 53 1033 28 1033 q 58 1033 54 1033 q 69 1031 63 1032 l 294 971 q 328 949 318 964 q 338 918 338 935 q 323 878 338 896 q 283 860 308 860 q 278 860 282 860 q 267 863 274 861 l 42 922 z "},"Í":{"ha":324,"x_min":-14,"x_max":325,"o":"m 275 115 q 241 31 275 60 q 161 1 207 1 q 80 31 114 1 q 46 115 46 60 l 46 715 q 80 800 46 771 q 161 829 114 829 q 241 800 207 829 q 275 715 275 771 l 275 115 m 57 863 q 46 860 50 861 q 40 860 42 860 q 1 878 15 860 q -14 918 -14 896 q -4 949 -14 935 q 29 971 6 964 l 254 1031 q 265 1033 261 1032 q 271 1033 269 1033 q 310 1015 296 1033 q 325 975 325 997 q 315 944 325 958 q 282 922 306 929 l 57 863 z "},"Î":{"ha":324,"x_min":21,"x_max":313,"o":"m 275 115 q 241 31 275 60 q 161 1 207 1 q 80 31 114 1 q 46 115 46 60 l 46 715 q 80 800 46 771 q 161 829 114 829 q 241 800 207 829 q 275 715 275 771 l 275 115 m 117 863 q 76 844 99 844 q 38 861 54 844 q 21 900 21 878 q 39 940 21 922 l 114 1010 q 168 1038 146 1038 q 224 1011 193 1038 l 297 933 q 313 901 313 922 q 296 863 313 879 q 257 846 279 846 q 217 864 235 846 l 167 913 l 117 863 z "},"Ï":{"ha":324,"x_min":-17,"x_max":339,"o":"m 275 115 q 241 31 275 60 q 161 1 207 1 q 80 31 114 1 q 46 115 46 60 l 46 715 q 80 800 46 771 q 161 829 114 829 q 241 800 207 829 q 275 715 275 771 l 275 115 m -17 914 q 3 961 -17 942 q 50 981 22 981 q 97 961 78 981 q 117 914 117 942 q 97 867 117 886 q 50 847 78 847 q 3 867 22 847 q -17 914 -17 886 m 206 914 q 225 961 206 942 q 272 981 244 981 q 319 961 300 981 q 339 914 339 942 q 319 867 339 886 q 272 847 300 847 q 225 867 244 847 q 206 914 206 886 z "},"Ñ":{"ha":740,"x_min":47,"x_max":692,"o":"m 276 115 q 242 31 276 60 q 161 1 208 1 q 81 31 115 1 q 47 115 47 60 l 47 715 q 81 800 47 771 q 161 829 115 829 l 167 829 q 254 778 228 829 l 463 463 l 463 715 q 497 800 463 771 q 576 829 531 829 q 658 800 624 829 q 692 715 692 771 l 692 115 q 658 31 692 60 q 576 1 624 1 q 536 7 553 1 q 508 21 519 13 q 489 38 496 29 q 478 51 482 46 l 276 351 l 276 115 m 193 874 q 153 860 167 860 q 113 876 131 860 q 94 915 94 892 q 110 963 94 942 q 150 1000 126 985 q 201 1024 174 1015 q 250 1032 228 1032 q 269 1031 268 1032 l 272 1031 q 334 1012 294 1031 q 433 976 374 993 q 468 986 456 976 q 491 1007 481 996 q 513 1028 501 1018 q 543 1038 524 1038 q 583 1021 565 1038 q 600 981 600 1004 q 582 932 600 953 q 537 896 564 911 q 480 873 510 881 q 428 865 450 865 q 377 874 400 865 q 335 892 354 882 q 296 911 315 903 q 254 919 276 919 q 222 912 236 919 q 193 874 207 904 z "},"Ò":{"ha":915,"x_min":33,"x_max":882,"o":"m 33 418 q 67 583 33 506 q 157 719 100 661 q 292 810 214 776 q 457 843 369 843 q 622 810 544 843 q 758 719 700 776 q 849 583 815 661 q 882 418 882 506 q 849 253 882 331 q 758 118 815 175 q 622 28 700 61 q 457 -6 544 -6 q 292 28 369 -6 q 157 118 214 61 q 67 253 100 175 q 33 418 33 331 m 267 415 q 281 340 267 375 q 322 279 296 306 q 383 238 349 253 q 458 224 418 224 q 534 238 499 224 q 595 279 569 253 q 636 340 621 306 q 651 415 651 375 q 636 491 651 456 q 595 552 621 526 q 534 593 569 578 q 458 608 499 608 q 383 593 418 608 q 322 552 349 578 q 281 491 296 526 q 267 415 267 456 m 288 922 q 254 944 264 929 q 244 975 244 958 q 259 1015 244 997 q 299 1033 274 1033 q 304 1033 300 1033 q 315 1031 308 1032 l 540 971 q 574 949 564 964 q 583 918 583 935 q 569 878 583 896 q 529 860 554 860 q 524 860 528 860 q 513 863 519 861 l 288 922 z "},"Ó":{"ha":915,"x_min":33,"x_max":882,"o":"m 33 418 q 67 583 33 506 q 157 719 100 661 q 292 810 214 776 q 457 843 369 843 q 622 810 544 843 q 758 719 700 776 q 849 583 815 661 q 882 418 882 506 q 849 253 882 331 q 758 118 815 175 q 622 28 700 61 q 457 -6 544 -6 q 292 28 369 -6 q 157 118 214 61 q 67 253 100 175 q 33 418 33 331 m 267 415 q 281 340 267 375 q 322 279 296 306 q 383 238 349 253 q 458 224 418 224 q 534 238 499 224 q 595 279 569 253 q 636 340 621 306 q 651 415 651 375 q 636 491 651 456 q 595 552 621 526 q 534 593 569 578 q 458 608 499 608 q 383 593 418 608 q 322 552 349 578 q 281 491 296 526 q 267 415 267 456 m 331 863 q 319 860 324 861 q 314 860 315 860 q 274 878 289 860 q 260 918 260 896 q 269 949 260 935 q 303 971 279 964 l 528 1031 q 539 1033 535 1032 q 544 1033 543 1033 q 584 1015 569 1033 q 599 975 599 997 q 589 944 599 958 q 556 922 579 929 l 331 863 z "},"Ô":{"ha":915,"x_min":33,"x_max":882,"o":"m 33 418 q 67 583 33 506 q 157 719 100 661 q 292 810 214 776 q 457 843 369 843 q 622 810 544 843 q 758 719 700 776 q 849 583 815 661 q 882 418 882 506 q 849 253 882 331 q 758 118 815 175 q 622 28 700 61 q 457 -6 544 -6 q 292 28 369 -6 q 157 118 214 61 q 67 253 100 175 q 33 418 33 331 m 267 415 q 281 340 267 375 q 322 279 296 306 q 383 238 349 253 q 458 224 418 224 q 534 238 499 224 q 595 279 569 253 q 636 340 621 306 q 651 415 651 375 q 636 491 651 456 q 595 552 621 526 q 534 593 569 578 q 458 608 499 608 q 383 593 418 608 q 322 552 349 578 q 281 491 296 526 q 267 415 267 456 m 403 863 q 363 844 385 844 q 324 861 340 844 q 307 900 307 878 q 325 940 307 922 l 400 1010 q 454 1038 432 1038 q 510 1011 479 1038 l 583 933 q 599 901 599 922 q 582 863 599 879 q 543 846 565 846 q 503 864 521 846 l 453 913 l 403 863 z "},"Õ":{"ha":915,"x_min":33,"x_max":882,"o":"m 33 418 q 67 583 33 506 q 157 719 100 661 q 292 810 214 776 q 457 843 369 843 q 622 810 544 843 q 758 719 700 776 q 849 583 815 661 q 882 418 882 506 q 849 253 882 331 q 758 118 815 175 q 622 28 700 61 q 457 -6 544 -6 q 292 28 369 -6 q 157 118 214 61 q 67 253 100 175 q 33 418 33 331 m 267 415 q 281 340 267 375 q 322 279 296 306 q 383 238 349 253 q 458 224 418 224 q 534 238 499 224 q 595 279 569 253 q 636 340 621 306 q 651 415 651 375 q 636 491 651 456 q 595 552 621 526 q 534 593 569 578 q 458 608 499 608 q 383 593 418 608 q 322 552 349 578 q 281 491 296 526 q 267 415 267 456 m 276 874 q 236 860 250 860 q 196 876 214 860 q 178 915 178 892 q 194 963 178 942 q 233 1000 210 985 q 284 1024 257 1015 q 333 1032 311 1032 q 353 1031 351 1032 l 356 1031 q 417 1012 378 1031 q 517 976 457 993 q 551 986 539 976 q 574 1007 564 996 q 596 1028 585 1018 q 626 1038 607 1038 q 666 1021 649 1038 q 683 981 683 1004 q 665 932 683 953 q 620 896 647 911 q 563 873 593 881 q 511 865 533 865 q 460 874 483 865 q 418 892 438 882 q 379 911 399 903 q 338 919 360 919 q 305 912 319 919 q 276 874 290 904 z "},"Ö":{"ha":915,"x_min":33,"x_max":882,"o":"m 33 418 q 67 583 33 506 q 157 719 100 661 q 292 810 214 776 q 457 843 369 843 q 622 810 544 843 q 758 719 700 776 q 849 583 815 661 q 882 418 882 506 q 849 253 882 331 q 758 118 815 175 q 622 28 700 61 q 457 -6 544 -6 q 292 28 369 -6 q 157 118 214 61 q 67 253 100 175 q 33 418 33 331 m 267 415 q 281 340 267 375 q 322 279 296 306 q 383 238 349 253 q 458 224 418 224 q 534 238 499 224 q 595 279 569 253 q 636 340 621 306 q 651 415 651 375 q 636 491 651 456 q 595 552 621 526 q 534 593 569 578 q 458 608 499 608 q 383 593 418 608 q 322 552 349 578 q 281 491 296 526 q 267 415 267 456 m 272 914 q 292 961 272 942 q 339 981 311 981 q 386 961 367 981 q 406 914 406 942 q 386 867 406 886 q 339 847 367 847 q 292 867 311 847 q 272 914 272 886 m 494 914 q 514 961 494 942 q 561 981 533 981 q 608 961 589 981 q 628 914 628 942 q 608 867 628 886 q 561 847 589 847 q 514 867 533 847 q 494 914 494 886 z "},"Ø":{"ha":915,"x_min":33,"x_max":882,"o":"m 33 418 q 67 583 33 506 q 157 719 100 661 q 292 810 214 776 q 457 843 369 843 q 622 810 544 843 q 758 719 700 776 q 849 583 815 661 q 882 418 882 506 q 849 253 882 331 q 758 118 815 175 q 622 28 700 61 q 457 -6 544 -6 q 292 28 369 -6 q 157 118 214 61 q 67 253 100 175 q 33 418 33 331 m 267 415 q 281 340 267 375 q 322 279 296 306 l 326 274 l 418 604 q 383 593 400 600 q 322 552 349 578 q 281 491 296 526 q 267 415 267 456 m 508 229 q 533 238 521 232 q 595 279 569 253 q 636 340 621 306 q 651 415 651 375 q 636 490 651 456 q 597 550 621 525 l 508 229 z "},"Ù":{"ha":758,"x_min":43,"x_max":715,"o":"m 715 365 q 382 0 715 0 q 43 365 43 0 l 43 715 q 77 800 43 771 q 157 829 111 829 q 238 800 204 829 q 272 715 272 771 l 272 331 q 379 228 272 228 q 486 331 486 228 l 486 715 q 520 800 486 771 q 600 829 554 829 q 681 800 647 829 q 715 715 715 771 l 715 365 m 218 922 q 185 944 194 929 q 175 975 175 958 q 190 1015 175 997 q 229 1033 204 1033 q 235 1033 231 1033 q 246 1031 239 1032 l 471 971 q 504 949 494 964 q 514 918 514 935 q 499 878 514 896 q 460 860 485 860 q 454 860 458 860 q 443 863 450 861 l 218 922 z "},"Ú":{"ha":758,"x_min":43,"x_max":715,"o":"m 715 365 q 382 0 715 0 q 43 365 43 0 l 43 715 q 77 800 43 771 q 157 829 111 829 q 238 800 204 829 q 272 715 272 771 l 272 331 q 379 228 272 228 q 486 331 486 228 l 486 715 q 520 800 486 771 q 600 829 554 829 q 681 800 647 829 q 715 715 715 771 l 715 365 m 247 863 q 236 860 240 861 q 231 860 232 860 q 191 878 206 860 q 176 918 176 896 q 186 949 176 935 q 219 971 196 964 l 444 1031 q 456 1033 451 1032 q 461 1033 460 1033 q 501 1015 486 1033 q 515 975 515 997 q 506 944 515 958 q 472 922 496 929 l 247 863 z "},"Û":{"ha":758,"x_min":43,"x_max":715,"o":"m 715 365 q 382 0 715 0 q 43 365 43 0 l 43 715 q 77 800 43 771 q 157 829 111 829 q 238 800 204 829 q 272 715 272 771 l 272 331 q 379 228 272 228 q 486 331 486 228 l 486 715 q 520 800 486 771 q 600 829 554 829 q 681 800 647 829 q 715 715 715 771 l 715 365 m 325 863 q 285 844 307 844 q 246 861 263 844 q 229 900 229 878 q 247 940 229 922 l 322 1010 q 376 1038 354 1038 q 432 1011 401 1038 l 506 933 q 521 901 521 922 q 504 863 521 879 q 465 846 488 846 q 425 864 443 846 l 375 913 l 325 863 z "},"Ü":{"ha":758,"x_min":43,"x_max":715,"o":"m 715 365 q 382 0 715 0 q 43 365 43 0 l 43 715 q 77 800 43 771 q 157 829 111 829 q 238 800 204 829 q 272 715 272 771 l 272 331 q 379 228 272 228 q 486 331 486 228 l 486 715 q 520 800 486 771 q 600 829 554 829 q 681 800 647 829 q 715 715 715 771 l 715 365 m 201 914 q 221 961 201 942 q 268 981 240 981 q 315 961 296 981 q 335 914 335 942 q 315 867 335 886 q 268 847 296 847 q 221 867 240 847 q 201 914 201 886 m 424 914 q 443 961 424 942 q 490 981 463 981 q 538 961 518 981 q 557 914 557 942 q 538 867 557 886 q 490 847 518 847 q 443 867 463 847 q 424 914 424 886 z "},"ß":{"ha":1372,"x_min":40,"x_max":1335,"o":"m 649 265 q 390 0 649 0 l 163 0 q 53 111 53 0 l 53 115 q 164 231 56 231 l 403 231 q 438 244 426 231 q 449 272 449 257 q 438 301 449 288 q 403 314 426 314 l 285 314 q 40 565 40 314 q 301 831 40 831 l 485 831 q 594 719 594 831 l 594 715 q 483 600 592 600 l 286 600 q 251 587 263 600 q 240 558 240 574 q 251 530 240 543 q 286 517 263 517 l 404 517 q 649 265 649 517 m 1335 265 q 1076 0 1335 0 l 849 0 q 739 111 739 0 l 739 115 q 850 231 742 231 l 1089 231 q 1124 244 1113 231 q 1135 272 1135 257 q 1124 301 1135 288 q 1089 314 1113 314 l 971 314 q 726 565 726 314 q 988 831 726 831 l 1171 831 q 1281 719 1281 831 l 1281 715 q 1169 600 1278 600 l 972 600 q 938 587 949 600 q 926 558 926 574 q 938 530 926 543 q 972 517 949 517 l 1090 517 q 1335 265 1335 517 z "},"à":{"ha":810,"x_min":22,"x_max":785,"o":"m 354 342 l 465 342 l 414 490 l 354 342 m 528 161 l 282 161 l 247 72 q 205 16 232 33 q 146 -1 178 -1 q 101 6 122 -1 q 61 28 79 14 q 33 63 43 43 q 22 107 22 82 q 32 153 22 132 l 306 757 q 354 815 324 796 q 417 835 385 835 q 478 815 449 835 q 524 757 508 796 l 775 153 q 785 107 785 132 q 774 63 785 83 q 746 28 764 43 q 706 6 728 14 q 661 -1 683 -1 q 601 16 629 -1 q 560 72 574 33 l 528 161 m 285 922 q 251 944 261 929 q 242 975 242 958 q 256 1015 242 997 q 296 1033 271 1033 q 301 1033 297 1033 q 313 1031 306 1032 l 538 971 q 571 949 561 964 q 581 918 581 935 q 566 878 581 896 q 526 860 551 860 q 521 860 525 860 q 510 863 517 861 l 285 922 z "},"á":{"ha":810,"x_min":22,"x_max":785,"o":"m 354 342 l 465 342 l 414 490 l 354 342 m 528 161 l 282 161 l 247 72 q 205 16 232 33 q 146 -1 178 -1 q 101 6 122 -1 q 61 28 79 14 q 33 63 43 43 q 22 107 22 82 q 32 153 22 132 l 306 757 q 354 815 324 796 q 417 835 385 835 q 478 815 449 835 q 524 757 508 796 l 775 153 q 785 107 785 132 q 774 63 785 83 q 746 28 764 43 q 706 6 728 14 q 661 -1 683 -1 q 601 16 629 -1 q 560 72 574 33 l 528 161 m 317 863 q 306 860 310 861 q 300 860 301 860 q 260 878 275 860 q 246 918 246 896 q 256 949 246 935 q 289 971 265 964 l 514 1031 q 525 1033 521 1032 q 531 1033 529 1033 q 570 1015 556 1033 q 585 975 585 997 q 575 944 585 958 q 542 922 565 929 l 317 863 z "},"â":{"ha":810,"x_min":22,"x_max":785,"o":"m 354 342 l 465 342 l 414 490 l 354 342 m 528 161 l 282 161 l 247 72 q 205 16 232 33 q 146 -1 178 -1 q 101 6 122 -1 q 61 28 79 14 q 33 63 43 43 q 22 107 22 82 q 32 153 22 132 l 306 757 q 354 815 324 796 q 417 835 385 835 q 478 815 449 835 q 524 757 508 796 l 775 153 q 785 107 785 132 q 774 63 785 83 q 746 28 764 43 q 706 6 728 14 q 661 -1 683 -1 q 601 16 629 -1 q 560 72 574 33 l 528 161 m 365 863 q 325 844 347 844 q 286 861 303 844 q 269 900 269 878 q 288 940 269 922 l 363 1010 q 417 1038 394 1038 q 472 1011 442 1038 l 546 933 q 561 901 561 922 q 544 863 561 879 q 506 846 528 846 q 465 864 483 846 l 415 913 l 365 863 z "},"ã":{"ha":810,"x_min":22,"x_max":785,"o":"m 354 342 l 465 342 l 414 490 l 354 342 m 528 161 l 282 161 l 247 72 q 205 16 232 33 q 146 -1 178 -1 q 101 6 122 -1 q 61 28 79 14 q 33 63 43 43 q 22 107 22 82 q 32 153 22 132 l 306 757 q 354 815 324 796 q 417 835 385 835 q 478 815 449 835 q 524 757 508 796 l 775 153 q 785 107 785 132 q 774 63 785 83 q 746 28 764 43 q 706 6 728 14 q 661 -1 683 -1 q 601 16 629 -1 q 560 72 574 33 l 528 161 m 264 874 q 224 860 238 860 q 183 876 201 860 q 165 915 165 892 q 181 963 165 942 q 221 1000 197 985 q 272 1024 244 1015 q 321 1032 299 1032 q 340 1031 339 1032 l 343 1031 q 405 1012 365 1031 q 504 976 444 993 q 539 986 526 976 q 562 1007 551 996 q 583 1028 572 1018 q 614 1038 594 1038 q 653 1021 636 1038 q 671 981 671 1004 q 653 932 671 953 q 608 896 635 911 q 551 873 581 881 q 499 865 521 865 q 448 874 471 865 q 406 892 425 882 q 367 911 386 903 q 325 919 347 919 q 292 912 307 919 q 264 874 278 904 z "},"ä":{"ha":810,"x_min":22,"x_max":785,"o":"m 354 342 l 465 342 l 414 490 l 354 342 m 528 161 l 282 161 l 247 72 q 205 16 232 33 q 146 -1 178 -1 q 101 6 122 -1 q 61 28 79 14 q 33 63 43 43 q 22 107 22 82 q 32 153 22 132 l 306 757 q 354 815 324 796 q 417 835 385 835 q 478 815 449 835 q 524 757 508 796 l 775 153 q 785 107 785 132 q 774 63 785 83 q 746 28 764 43 q 706 6 728 14 q 661 -1 683 -1 q 601 16 629 -1 q 560 72 574 33 l 528 161 m 238 914 q 257 961 238 942 q 304 981 276 981 q 351 961 332 981 q 371 914 371 942 q 351 867 371 886 q 304 847 332 847 q 257 867 276 847 q 238 914 238 886 m 460 914 q 479 961 460 942 q 526 981 499 981 q 574 961 554 981 q 593 914 593 942 q 574 867 593 886 q 526 847 554 847 q 479 867 499 847 q 460 914 460 886 z "},"å":{"ha":810,"x_min":22,"x_max":785,"o":"m 354 342 l 465 342 l 414 490 l 354 342 m 528 161 l 282 161 l 247 72 q 205 16 232 33 q 146 -1 178 -1 q 101 6 122 -1 q 61 28 79 14 q 33 63 43 43 q 22 107 22 82 q 32 153 22 132 l 306 757 q 354 815 324 796 q 417 835 385 835 q 478 815 449 835 q 524 757 508 796 l 775 153 q 785 107 785 132 q 774 63 785 83 q 746 28 764 43 q 706 6 728 14 q 661 -1 683 -1 q 601 16 629 -1 q 560 72 574 33 l 528 161 m 285 925 q 295 974 285 951 q 323 1014 306 997 q 364 1040 340 1031 q 415 1050 388 1050 q 466 1040 442 1050 q 508 1014 490 1031 q 535 974 525 997 q 546 925 546 951 q 535 876 546 899 q 508 836 525 853 q 466 810 490 819 q 415 800 442 800 q 364 810 388 800 q 323 836 340 819 q 295 876 306 853 q 285 925 285 899 m 365 924 q 380 886 365 901 q 415 871 394 871 q 451 886 436 871 q 467 924 467 901 q 451 961 467 946 q 415 976 436 976 q 380 961 394 976 q 365 924 365 946 z "},"æ":{"ha":1093,"x_min":19,"x_max":1057,"o":"m 664 0 q 636 1 649 0 l 636 -1 q 581 15 604 -1 q 556 68 558 32 q 550 115 550 89 l 550 131 l 547 161 l 301 161 l 243 72 q 185 16 217 33 q 121 -1 153 -1 q 78 6 97 -1 q 44 28 58 14 q 25 63 31 43 q 26 107 19 82 q 49 153 33 132 l 485 757 q 617 831 533 831 l 942 831 q 1026 797 996 831 q 1057 715 1057 763 q 1026 634 1057 668 q 942 600 996 600 l 778 600 l 778 531 l 886 531 q 971 497 940 531 q 1001 415 1001 463 q 971 334 1001 368 q 886 300 940 300 l 778 300 l 778 231 l 942 231 q 1026 197 996 231 q 1057 115 1057 163 q 1026 34 1057 68 q 942 0 996 0 l 664 0 m 550 342 l 550 514 l 422 342 l 550 342 z "},"ç":{"ha":689,"x_min":29,"x_max":643,"o":"m 443 597 q 359 582 394 597 q 299 541 324 567 q 263 483 275 515 q 251 415 251 450 q 263 347 251 381 q 299 288 275 314 q 359 247 324 263 q 442 231 394 231 l 526 231 q 577 221 556 231 q 613 194 599 211 q 635 157 628 178 q 642 115 642 136 q 613 35 642 71 q 526 0 583 0 l 443 0 q 263 35 340 0 q 133 128 185 71 q 55 258 81 185 q 29 410 29 332 q 56 564 29 489 q 137 699 83 639 q 272 794 190 758 q 461 831 353 831 l 526 831 q 577 821 556 831 q 613 794 599 811 q 635 757 628 778 q 643 714 643 736 q 635 671 643 692 q 613 633 628 650 q 577 607 599 617 q 526 597 556 597 l 443 597 m 356 32 q 379 96 363 83 q 415 108 396 108 q 453 94 436 108 q 471 53 471 81 q 478 2 471 22 q 493 -34 485 -18 q 508 -65 501 -50 q 515 -101 515 -81 q 505 -152 515 -126 q 476 -200 494 -178 q 432 -237 457 -222 q 379 -253 407 -251 q 336 -235 350 -253 q 322 -197 322 -218 q 336 -159 322 -176 q 379 -142 350 -142 l 374 -142 q 389 -126 381 -135 q 397 -103 397 -118 q 391 -69 397 -86 q 376 -36 385 -53 q 362 -3 368 -19 q 356 32 356 14 z "},"è":{"ha":711,"x_min":47,"x_max":665,"o":"m 161 0 q 47 115 47 0 l 47 715 q 161 831 47 831 l 550 831 q 635 797 604 831 q 665 715 665 763 q 635 634 665 668 q 550 600 604 600 l 275 600 l 275 531 l 494 531 q 579 497 549 531 q 610 415 610 463 q 579 334 610 368 q 494 300 549 300 l 275 300 l 275 231 l 550 231 q 635 197 604 231 q 665 115 665 163 q 635 34 665 68 q 550 0 604 0 l 161 0 m 204 922 q 171 944 181 929 q 161 975 161 958 q 176 1015 161 997 q 215 1033 190 1033 q 221 1033 217 1033 q 232 1031 225 1032 l 457 971 q 490 949 481 964 q 500 918 500 935 q 485 878 500 896 q 446 860 471 860 q 440 860 444 860 q 429 863 436 861 l 204 922 z "},"é":{"ha":711,"x_min":47,"x_max":665,"o":"m 161 0 q 47 115 47 0 l 47 715 q 161 831 47 831 l 550 831 q 635 797 604 831 q 665 715 665 763 q 635 634 665 668 q 550 600 604 600 l 275 600 l 275 531 l 494 531 q 579 497 549 531 q 610 415 610 463 q 579 334 610 368 q 494 300 549 300 l 275 300 l 275 231 l 550 231 q 635 197 604 231 q 665 115 665 163 q 635 34 665 68 q 550 0 604 0 l 161 0 m 265 863 q 254 860 258 861 q 249 860 250 860 q 209 878 224 860 q 194 918 194 896 q 204 949 194 935 q 238 971 214 964 l 463 1031 q 474 1033 469 1032 q 479 1033 478 1033 q 519 1015 504 1033 q 533 975 533 997 q 524 944 533 958 q 490 922 514 929 l 265 863 z "},"ê":{"ha":711,"x_min":47,"x_max":665,"o":"m 161 0 q 47 115 47 0 l 47 715 q 161 831 47 831 l 550 831 q 635 797 604 831 q 665 715 665 763 q 635 634 665 668 q 550 600 604 600 l 275 600 l 275 531 l 494 531 q 579 497 549 531 q 610 415 610 463 q 579 334 610 368 q 494 300 549 300 l 275 300 l 275 231 l 550 231 q 635 197 604 231 q 665 115 665 163 q 635 34 665 68 q 550 0 604 0 l 161 0 m 317 863 q 276 844 299 844 q 238 861 254 844 q 221 900 221 878 q 239 940 221 922 l 314 1010 q 368 1038 346 1038 q 424 1011 393 1038 l 497 933 q 513 901 513 922 q 496 863 513 879 q 457 846 479 846 q 417 864 435 846 l 367 913 l 317 863 z "},"ë":{"ha":711,"x_min":47,"x_max":665,"o":"m 161 0 q 47 115 47 0 l 47 715 q 161 831 47 831 l 550 831 q 635 797 604 831 q 665 715 665 763 q 635 634 665 668 q 550 600 604 600 l 275 600 l 275 531 l 494 531 q 579 497 549 531 q 610 415 610 463 q 579 334 610 368 q 494 300 549 300 l 275 300 l 275 231 l 550 231 q 635 197 604 231 q 665 115 665 163 q 635 34 665 68 q 550 0 604 0 l 161 0 m 169 914 q 189 961 169 942 q 236 981 208 981 q 283 961 264 981 q 303 914 303 942 q 283 867 303 886 q 236 847 264 847 q 189 867 208 847 q 169 914 169 886 m 392 914 q 411 961 392 942 q 458 981 431 981 q 506 961 486 981 q 525 914 525 942 q 506 867 525 886 q 458 847 486 847 q 411 867 431 847 q 392 914 392 886 z "},"ì":{"ha":324,"x_min":-6,"x_max":333,"o":"m 275 115 q 241 31 275 60 q 161 1 207 1 q 80 31 114 1 q 46 115 46 60 l 46 715 q 80 800 46 771 q 161 829 114 829 q 241 800 207 829 q 275 715 275 771 l 275 115 m 38 922 q 4 944 14 929 q -6 975 -6 958 q 9 1015 -6 997 q 49 1033 24 1033 q 54 1033 50 1033 q 65 1031 58 1032 l 290 971 q 324 949 314 964 q 333 918 333 935 q 319 878 333 896 q 279 860 304 860 q 274 860 278 860 q 263 863 269 861 l 38 922 z "},"í":{"ha":324,"x_min":-18,"x_max":321,"o":"m 275 115 q 241 31 275 60 q 161 1 207 1 q 80 31 114 1 q 46 115 46 60 l 46 715 q 80 800 46 771 q 161 829 114 829 q 241 800 207 829 q 275 715 275 771 l 275 115 m 53 863 q 42 860 46 861 q 36 860 38 860 q -3 878 11 860 q -18 918 -18 896 q -8 949 -18 935 q 25 971 1 964 l 250 1031 q 261 1033 257 1032 q 267 1033 265 1033 q 306 1015 292 1033 q 321 975 321 997 q 311 944 321 958 q 278 922 301 929 l 53 863 z "},"î":{"ha":324,"x_min":17,"x_max":308,"o":"m 275 115 q 241 31 275 60 q 161 1 207 1 q 80 31 114 1 q 46 115 46 60 l 46 715 q 80 800 46 771 q 161 829 114 829 q 241 800 207 829 q 275 715 275 771 l 275 115 m 113 863 q 72 844 94 844 q 33 861 50 844 q 17 900 17 878 q 35 940 17 922 l 110 1010 q 164 1038 142 1038 q 219 1011 189 1038 l 293 933 q 308 901 308 922 q 292 863 308 879 q 253 846 275 846 q 213 864 231 846 l 163 913 l 113 863 z "},"ï":{"ha":324,"x_min":-21,"x_max":335,"o":"m 275 115 q 241 31 275 60 q 161 1 207 1 q 80 31 114 1 q 46 115 46 60 l 46 715 q 80 800 46 771 q 161 829 114 829 q 241 800 207 829 q 275 715 275 771 l 275 115 m -21 914 q -1 961 -21 942 q 46 981 18 981 q 93 961 74 981 q 113 914 113 942 q 93 867 113 886 q 46 847 74 847 q -1 867 18 847 q -21 914 -21 886 m 201 914 q 221 961 201 942 q 268 981 240 981 q 315 961 296 981 q 335 914 335 942 q 315 867 335 886 q 268 847 296 847 q 221 867 240 847 q 201 914 201 886 z "},"ñ":{"ha":740,"x_min":47,"x_max":692,"o":"m 276 115 q 242 31 276 60 q 161 1 208 1 q 81 31 115 1 q 47 115 47 60 l 47 715 q 81 800 47 771 q 161 829 115 829 l 167 829 q 254 778 228 829 l 463 463 l 463 715 q 497 800 463 771 q 576 829 531 829 q 658 800 624 829 q 692 715 692 771 l 692 115 q 658 31 692 60 q 576 1 624 1 q 536 7 553 1 q 508 21 519 13 q 489 38 496 29 q 478 51 482 46 l 276 351 l 276 115 m 193 874 q 153 860 167 860 q 113 876 131 860 q 94 915 94 892 q 110 963 94 942 q 150 1000 126 985 q 201 1024 174 1015 q 250 1032 228 1032 q 269 1031 268 1032 l 272 1031 q 334 1012 294 1031 q 433 976 374 993 q 468 986 456 976 q 491 1007 481 996 q 513 1028 501 1018 q 543 1038 524 1038 q 583 1021 565 1038 q 600 981 600 1004 q 582 932 600 953 q 537 896 564 911 q 480 873 510 881 q 428 865 450 865 q 377 874 400 865 q 335 892 354 882 q 296 911 315 903 q 254 919 276 919 q 222 912 236 919 q 193 874 207 904 z "},"ò":{"ha":915,"x_min":33,"x_max":882,"o":"m 33 418 q 67 583 33 506 q 157 719 100 661 q 292 810 214 776 q 457 843 369 843 q 622 810 544 843 q 758 719 700 776 q 849 583 815 661 q 882 418 882 506 q 849 253 882 331 q 758 118 815 175 q 622 28 700 61 q 457 -6 544 -6 q 292 28 369 -6 q 157 118 214 61 q 67 253 100 175 q 33 418 33 331 m 267 415 q 281 340 267 375 q 322 279 296 306 q 383 238 349 253 q 458 224 418 224 q 534 238 499 224 q 595 279 569 253 q 636 340 621 306 q 651 415 651 375 q 636 491 651 456 q 595 552 621 526 q 534 593 569 578 q 458 608 499 608 q 383 593 418 608 q 322 552 349 578 q 281 491 296 526 q 267 415 267 456 m 288 922 q 254 944 264 929 q 244 975 244 958 q 259 1015 244 997 q 299 1033 274 1033 q 304 1033 300 1033 q 315 1031 308 1032 l 540 971 q 574 949 564 964 q 583 918 583 935 q 569 878 583 896 q 529 860 554 860 q 524 860 528 860 q 513 863 519 861 l 288 922 z "},"ó":{"ha":915,"x_min":33,"x_max":882,"o":"m 33 418 q 67 583 33 506 q 157 719 100 661 q 292 810 214 776 q 457 843 369 843 q 622 810 544 843 q 758 719 700 776 q 849 583 815 661 q 882 418 882 506 q 849 253 882 331 q 758 118 815 175 q 622 28 700 61 q 457 -6 544 -6 q 292 28 369 -6 q 157 118 214 61 q 67 253 100 175 q 33 418 33 331 m 267 415 q 281 340 267 375 q 322 279 296 306 q 383 238 349 253 q 458 224 418 224 q 534 238 499 224 q 595 279 569 253 q 636 340 621 306 q 651 415 651 375 q 636 491 651 456 q 595 552 621 526 q 534 593 569 578 q 458 608 499 608 q 383 593 418 608 q 322 552 349 578 q 281 491 296 526 q 267 415 267 456 m 331 863 q 319 860 324 861 q 314 860 315 860 q 274 878 289 860 q 260 918 260 896 q 269 949 260 935 q 303 971 279 964 l 528 1031 q 539 1033 535 1032 q 544 1033 543 1033 q 584 1015 569 1033 q 599 975 599 997 q 589 944 599 958 q 556 922 579 929 l 331 863 z "},"ô":{"ha":915,"x_min":33,"x_max":882,"o":"m 33 418 q 67 583 33 506 q 157 719 100 661 q 292 810 214 776 q 457 843 369 843 q 622 810 544 843 q 758 719 700 776 q 849 583 815 661 q 882 418 882 506 q 849 253 882 331 q 758 118 815 175 q 622 28 700 61 q 457 -6 544 -6 q 292 28 369 -6 q 157 118 214 61 q 67 253 100 175 q 33 418 33 331 m 267 415 q 281 340 267 375 q 322 279 296 306 q 383 238 349 253 q 458 224 418 224 q 534 238 499 224 q 595 279 569 253 q 636 340 621 306 q 651 415 651 375 q 636 491 651 456 q 595 552 621 526 q 534 593 569 578 q 458 608 499 608 q 383 593 418 608 q 322 552 349 578 q 281 491 296 526 q 267 415 267 456 m 403 863 q 363 844 385 844 q 324 861 340 844 q 307 900 307 878 q 325 940 307 922 l 400 1010 q 454 1038 432 1038 q 510 1011 479 1038 l 583 933 q 599 901 599 922 q 582 863 599 879 q 543 846 565 846 q 503 864 521 846 l 453 913 l 403 863 z "},"õ":{"ha":915,"x_min":33,"x_max":882,"o":"m 33 418 q 67 583 33 506 q 157 719 100 661 q 292 810 214 776 q 457 843 369 843 q 622 810 544 843 q 758 719 700 776 q 849 583 815 661 q 882 418 882 506 q 849 253 882 331 q 758 118 815 175 q 622 28 700 61 q 457 -6 544 -6 q 292 28 369 -6 q 157 118 214 61 q 67 253 100 175 q 33 418 33 331 m 267 415 q 281 340 267 375 q 322 279 296 306 q 383 238 349 253 q 458 224 418 224 q 534 238 499 224 q 595 279 569 253 q 636 340 621 306 q 651 415 651 375 q 636 491 651 456 q 595 552 621 526 q 534 593 569 578 q 458 608 499 608 q 383 593 418 608 q 322 552 349 578 q 281 491 296 526 q 267 415 267 456 m 276 874 q 236 860 250 860 q 196 876 214 860 q 178 915 178 892 q 194 963 178 942 q 233 1000 210 985 q 284 1024 257 1015 q 333 1032 311 1032 q 353 1031 351 1032 l 356 1031 q 417 1012 378 1031 q 517 976 457 993 q 551 986 539 976 q 574 1007 564 996 q 596 1028 585 1018 q 626 1038 607 1038 q 666 1021 649 1038 q 683 981 683 1004 q 665 932 683 953 q 620 896 647 911 q 563 873 593 881 q 511 865 533 865 q 460 874 483 865 q 418 892 438 882 q 379 911 399 903 q 338 919 360 919 q 305 912 319 919 q 276 874 290 904 z "},"ö":{"ha":915,"x_min":33,"x_max":882,"o":"m 33 418 q 67 583 33 506 q 157 719 100 661 q 292 810 214 776 q 457 843 369 843 q 622 810 544 843 q 758 719 700 776 q 849 583 815 661 q 882 418 882 506 q 849 253 882 331 q 758 118 815 175 q 622 28 700 61 q 457 -6 544 -6 q 292 28 369 -6 q 157 118 214 61 q 67 253 100 175 q 33 418 33 331 m 267 415 q 281 340 267 375 q 322 279 296 306 q 383 238 349 253 q 458 224 418 224 q 534 238 499 224 q 595 279 569 253 q 636 340 621 306 q 651 415 651 375 q 636 491 651 456 q 595 552 621 526 q 534 593 569 578 q 458 608 499 608 q 383 593 418 608 q 322 552 349 578 q 281 491 296 526 q 267 415 267 456 m 272 914 q 292 961 272 942 q 339 981 311 981 q 386 961 367 981 q 406 914 406 942 q 386 867 406 886 q 339 847 367 847 q 292 867 311 847 q 272 914 272 886 m 494 914 q 514 961 494 942 q 561 981 533 981 q 608 961 589 981 q 628 914 628 942 q 608 867 628 886 q 561 847 589 847 q 514 867 533 847 q 494 914 494 886 z "},"ø":{"ha":915,"x_min":33,"x_max":882,"o":"m 33 418 q 67 583 33 506 q 157 719 100 661 q 292 810 214 776 q 457 843 369 843 q 622 810 544 843 q 758 719 700 776 q 849 583 815 661 q 882 418 882 506 q 849 253 882 331 q 758 118 815 175 q 622 28 700 61 q 457 -6 544 -6 q 292 28 369 -6 q 157 118 214 61 q 67 253 100 175 q 33 418 33 331 m 267 415 q 281 340 267 375 q 322 279 296 306 l 326 274 l 418 604 q 383 593 400 600 q 322 552 349 578 q 281 491 296 526 q 267 415 267 456 m 508 229 q 533 238 521 232 q 595 279 569 253 q 636 340 621 306 q 651 415 651 375 q 636 490 651 456 q 597 550 621 525 l 508 229 z "},"ù":{"ha":758,"x_min":43,"x_max":715,"o":"m 715 365 q 382 0 715 0 q 43 365 43 0 l 43 715 q 77 800 43 771 q 157 829 111 829 q 238 800 204 829 q 272 715 272 771 l 272 331 q 379 228 272 228 q 486 331 486 228 l 486 715 q 520 800 486 771 q 600 829 554 829 q 681 800 647 829 q 715 715 715 771 l 715 365 m 218 922 q 185 944 194 929 q 175 975 175 958 q 190 1015 175 997 q 229 1033 204 1033 q 235 1033 231 1033 q 246 1031 239 1032 l 471 971 q 504 949 494 964 q 514 918 514 935 q 499 878 514 896 q 460 860 485 860 q 454 860 458 860 q 443 863 450 861 l 218 922 z "},"ú":{"ha":758,"x_min":43,"x_max":715,"o":"m 715 365 q 382 0 715 0 q 43 365 43 0 l 43 715 q 77 800 43 771 q 157 829 111 829 q 238 800 204 829 q 272 715 272 771 l 272 331 q 379 228 272 228 q 486 331 486 228 l 486 715 q 520 800 486 771 q 600 829 554 829 q 681 800 647 829 q 715 715 715 771 l 715 365 m 247 863 q 236 860 240 861 q 231 860 232 860 q 191 878 206 860 q 176 918 176 896 q 186 949 176 935 q 219 971 196 964 l 444 1031 q 456 1033 451 1032 q 461 1033 460 1033 q 501 1015 486 1033 q 515 975 515 997 q 506 944 515 958 q 472 922 496 929 l 247 863 z "},"û":{"ha":758,"x_min":43,"x_max":715,"o":"m 715 365 q 382 0 715 0 q 43 365 43 0 l 43 715 q 77 800 43 771 q 157 829 111 829 q 238 800 204 829 q 272 715 272 771 l 272 331 q 379 228 272 228 q 486 331 486 228 l 486 715 q 520 800 486 771 q 600 829 554 829 q 681 800 647 829 q 715 715 715 771 l 715 365 m 325 863 q 285 844 307 844 q 246 861 263 844 q 229 900 229 878 q 247 940 229 922 l 322 1010 q 376 1038 354 1038 q 432 1011 401 1038 l 506 933 q 521 901 521 922 q 504 863 521 879 q 465 846 488 846 q 425 864 443 846 l 375 913 l 325 863 z "},"ü":{"ha":758,"x_min":43,"x_max":715,"o":"m 715 365 q 382 0 715 0 q 43 365 43 0 l 43 715 q 77 800 43 771 q 157 829 111 829 q 238 800 204 829 q 272 715 272 771 l 272 331 q 379 228 272 228 q 486 331 486 228 l 486 715 q 520 800 486 771 q 600 829 554 829 q 681 800 647 829 q 715 715 715 771 l 715 365 m 201 914 q 221 961 201 942 q 268 981 240 981 q 315 961 296 981 q 335 914 335 942 q 315 867 335 886 q 268 847 296 847 q 221 867 240 847 q 201 914 201 886 m 424 914 q 443 961 424 942 q 490 981 463 981 q 538 961 518 981 q 557 914 557 942 q 538 867 557 886 q 490 847 518 847 q 443 867 463 847 q 424 914 424 886 z "},"ÿ":{"ha":681,"x_min":22,"x_max":658,"o":"m 442 771 q 484 816 460 801 q 536 831 508 831 q 581 821 558 831 q 620 796 603 811 q 648 760 638 781 q 658 717 658 739 q 639 656 658 688 l 456 360 l 456 114 q 422 29 456 58 q 342 0 388 0 q 260 29 294 0 q 226 114 226 58 l 226 360 l 42 656 q 22 717 22 688 q 33 760 22 739 q 60 796 43 781 q 100 821 78 811 q 144 831 122 831 q 197 816 172 831 q 239 771 221 801 l 340 597 l 442 771 m 156 914 q 175 961 156 942 q 222 981 194 981 q 269 961 250 981 q 289 914 289 942 q 269 867 289 886 q 222 847 250 847 q 175 867 194 847 q 156 914 156 886 m 378 914 q 397 961 378 942 q 444 981 417 981 q 492 961 472 981 q 511 914 511 942 q 492 867 511 886 q 444 847 472 847 q 397 867 417 847 q 378 914 378 886 z "},"ˇ":{"ha":344,"x_min":25,"x_max":317,"o":"m 221 1032 q 261 1050 239 1050 q 300 1033 283 1050 q 317 994 317 1017 q 299 954 317 972 l 213 868 q 174 840 196 840 q 121 874 149 840 l 40 961 q 25 993 25 972 q 42 1032 25 1015 q 81 1049 58 1049 q 121 1031 103 1049 l 171 982 l 221 1032 z "},"˙":{"ha":229,"x_min":46,"x_max":179,"o":"m 46 914 q 65 961 46 942 q 113 981 85 981 q 160 961 140 981 q 179 914 179 942 q 160 867 179 886 q 113 847 140 847 q 65 867 85 847 q 46 914 46 886 z "},"˝":{"ha":465,"x_min":40,"x_max":425,"o":"m 40 914 q 66 991 54 964 q 89 1031 78 1018 q 111 1047 100 1044 q 136 1050 122 1050 q 183 1031 164 1050 q 203 983 203 1011 q 176 906 188 933 q 154 866 165 879 q 132 850 143 853 q 107 847 121 847 q 60 867 79 847 q 40 914 40 886 m 263 914 q 288 991 276 964 q 311 1031 300 1018 q 333 1047 322 1044 q 358 1050 344 1050 q 406 1031 386 1050 q 425 983 425 1011 q 398 904 410 932 q 376 864 386 876 q 354 849 365 851 q 329 847 343 847 q 282 867 301 847 q 263 914 263 886 z "},"˚":{"ha":447,"x_min":26,"x_max":288,"o":"m 26 925 q 37 974 26 951 q 65 1014 47 997 q 106 1040 82 1031 q 157 1050 129 1050 q 208 1040 183 1050 q 249 1014 232 1031 q 277 974 267 997 q 288 925 288 951 q 277 876 288 899 q 249 836 267 853 q 208 810 232 819 q 157 800 183 800 q 106 810 129 800 q 65 836 82 819 q 37 876 47 853 q 26 925 26 899 m 107 924 q 122 886 107 901 q 157 871 136 871 q 193 886 178 871 q 208 924 208 901 q 193 961 208 946 q 157 976 178 976 q 122 961 136 976 q 107 924 107 946 z "},"Ð":{"ha":739,"x_min":-4,"x_max":708,"o":"m 47 715 q 58 758 47 738 q 85 795 68 779 q 124 821 103 811 q 167 831 146 831 l 278 831 q 467 794 386 831 q 601 699 547 758 q 681 564 654 639 q 708 410 708 489 q 683 258 708 332 q 605 128 657 185 q 476 35 553 71 q 296 0 399 0 l 167 0 q 80 31 113 0 q 47 115 47 63 l 47 715 m 297 231 q 377 247 343 231 q 435 290 411 264 q 470 351 458 317 q 482 421 482 385 q 471 486 482 454 q 437 542 460 518 q 378 582 414 567 q 296 597 343 597 l 276 597 l 276 231 l 297 231 m 64 338 q 15 358 32 338 q -3 405 -3 378 q 15 453 -3 432 q 64 473 32 473 l 280 473 q 329 453 312 473 q 347 405 347 432 q 329 358 347 378 q 280 338 312 338 l 64 338 z "},"Ý":{"ha":681,"x_min":22,"x_max":658,"o":"m 442 771 q 484 816 460 801 q 536 831 508 831 q 581 821 558 831 q 620 796 603 811 q 648 760 638 781 q 658 717 658 739 q 639 656 658 688 l 456 360 l 456 114 q 422 29 456 58 q 342 0 388 0 q 260 29 294 0 q 226 114 226 58 l 226 360 l 42 656 q 22 717 22 688 q 33 760 22 739 q 60 796 43 781 q 100 821 78 811 q 144 831 122 831 q 197 816 172 831 q 239 771 221 801 l 340 597 l 442 771 m 214 863 q 203 860 207 861 q 197 860 199 860 q 158 878 172 860 q 143 918 143 896 q 153 949 143 935 q 186 971 163 964 l 411 1031 q 422 1033 418 1032 q 428 1033 426 1033 q 467 1015 453 1033 q 482 975 482 997 q 472 944 482 958 q 439 922 463 929 l 214 863 z "},"Þ":{"ha":697,"x_min":46,"x_max":683,"o":"m 279 118 q 164 0 279 0 q 76 29 106 0 q 60 53 67 40 q 46 115 46 79 l 46 715 q 80 800 46 771 q 161 829 114 829 q 241 800 207 829 q 275 715 275 771 l 275 696 l 393 696 q 523 673 468 696 q 613 613 578 650 q 666 527 649 575 q 683 429 683 479 q 667 332 683 379 q 620 248 651 285 q 544 188 589 211 q 440 165 499 165 l 403 165 q 299 258 299 165 q 311 309 299 292 q 343 335 324 326 q 385 348 363 344 q 426 358 407 351 q 460 376 446 364 q 475 415 474 389 q 403 478 475 478 l 279 478 l 279 118 z "},"ð":{"ha":739,"x_min":-7,"x_max":708,"o":"m 47 715 q 58 758 47 738 q 85 795 68 779 q 124 821 103 811 q 167 831 146 831 l 278 831 q 467 794 386 831 q 601 699 547 758 q 681 564 654 639 q 708 410 708 489 q 683 258 708 332 q 605 128 657 185 q 476 35 553 71 q 296 0 399 0 l 167 0 q 80 31 113 0 q 47 115 47 63 l 47 339 q 10 358 24 343 q -7 404 -7 378 q 10 453 -7 432 q 47 472 24 469 l 47 715 m 297 231 q 377 247 343 231 q 435 290 411 264 q 470 351 458 317 q 482 421 482 385 q 471 486 482 454 q 437 542 460 518 q 378 582 414 567 q 296 597 343 597 l 276 597 l 276 474 q 325 453 307 474 q 343 404 343 432 q 325 358 343 378 q 276 339 307 339 l 276 231 l 297 231 z "},"ý":{"ha":681,"x_min":22,"x_max":658,"o":"m 442 771 q 484 816 460 801 q 536 831 508 831 q 581 821 558 831 q 620 796 603 811 q 648 760 638 781 q 658 717 658 739 q 639 656 658 688 l 456 360 l 456 114 q 422 29 456 58 q 342 0 388 0 q 260 29 294 0 q 226 114 226 58 l 226 360 l 42 656 q 22 717 22 688 q 33 760 22 739 q 60 796 43 781 q 100 821 78 811 q 144 831 122 831 q 197 816 172 831 q 239 771 221 801 l 340 597 l 442 771 m 214 863 q 203 860 207 861 q 197 860 199 860 q 158 878 172 860 q 143 918 143 896 q 153 949 143 935 q 186 971 163 964 l 411 1031 q 422 1033 418 1032 q 428 1033 426 1033 q 467 1015 453 1033 q 482 975 482 997 q 472 944 482 958 q 439 922 463 929 l 214 863 z "},"þ":{"ha":697,"x_min":46,"x_max":683,"o":"m 279 118 q 164 0 279 0 q 76 29 106 0 q 60 53 67 40 q 46 115 46 79 l 46 715 q 80 800 46 771 q 161 829 114 829 q 241 800 207 829 q 275 715 275 771 l 275 696 l 393 696 q 523 673 468 696 q 613 613 578 650 q 666 527 649 575 q 683 429 683 479 q 667 332 683 379 q 620 248 651 285 q 544 188 589 211 q 440 165 499 165 l 403 165 q 299 258 299 165 q 311 309 299 292 q 343 335 324 326 q 385 348 363 344 q 426 358 407 351 q 460 376 446 364 q 475 415 474 389 q 403 478 475 478 l 279 478 l 279 118 z "},"€":{"ha":700,"x_min":29,"x_max":654,"o":"m 456 597 q 431 599 433 597 q 310 542 357 593 q 263 415 263 490 q 277 341 263 375 q 318 283 292 307 q 379 244 344 258 q 454 231 414 231 l 539 231 q 624 195 593 231 q 654 113 654 160 q 624 33 654 67 q 539 0 593 0 l 456 0 q 286 33 364 0 q 151 122 208 65 q 62 256 94 179 q 29 418 29 332 q 60 579 29 504 q 150 710 92 654 q 290 799 208 767 q 474 831 372 831 l 539 831 q 624 795 593 831 q 654 713 654 760 q 624 632 654 667 q 539 597 593 597 l 456 597 m 274 439 q 226 458 246 439 q 206 507 206 476 q 224 554 206 533 q 274 575 242 575 l 494 575 q 544 554 526 575 q 563 507 563 533 q 544 458 563 478 q 494 439 525 439 l 274 439 m 274 265 q 226 284 246 265 q 206 333 206 303 q 224 381 206 360 q 274 401 242 401 l 494 401 q 544 381 526 401 q 563 333 563 360 q 544 285 563 304 q 494 265 525 265 l 274 265 z "},"„":{"ha":590,"x_min":21,"x_max":568,"o":"m 263 0 q 210 -85 250 -56 q 124 -114 169 -114 q 49 -85 76 -114 q 33 0 21 -56 l 64 150 q 117 235 76 204 q 204 265 157 265 q 278 235 250 265 q 293 150 306 204 l 263 0 m 525 0 q 472 -85 513 -56 q 386 -114 432 -114 q 311 -85 339 -114 q 296 0 283 -56 l 326 150 q 379 235 339 204 q 467 265 419 265 q 540 235 513 265 q 556 150 568 204 l 525 0 z "},"‚":{"ha":321,"x_min":18,"x_max":303,"o":"m 260 0 q 207 -85 247 -56 q 121 -114 167 -114 q 46 -85 74 -114 q 31 0 18 -56 l 61 150 q 114 235 74 204 q 201 265 154 265 q 275 235 247 265 q 290 150 303 204 l 260 0 z "},"@":{"ha":669,"x_min":25,"x_max":639,"o":"m 450 492 l 450 339 q 496 286 450 286 q 547 318 524 286 q 569 408 569 350 q 557 513 569 465 q 516 596 544 561 q 443 650 488 631 q 335 669 399 669 q 241 652 285 669 q 165 600 197 635 q 115 514 133 565 q 96 394 96 463 q 154 186 96 257 q 310 100 213 115 l 301 31 q 180 72 232 40 q 93 152 128 104 q 42 263 58 200 q 25 396 25 325 q 51 540 25 476 q 119 648 76 604 q 218 715 163 692 q 335 738 274 738 q 559 659 479 738 q 639 414 639 581 q 634 358 639 390 q 614 297 629 326 q 570 248 599 268 q 494 228 542 228 q 403 279 425 228 q 324 253 367 253 q 243 283 278 253 q 208 372 208 314 q 239 462 208 431 q 322 493 269 493 q 393 474 365 493 l 399 492 l 450 492 m 393 411 q 333 436 369 436 q 265 372 265 436 q 329 311 265 311 q 393 340 369 311 l 393 411 z "},"®":{"ha":750,"x_min":65,"x_max":693,"o":"m 375 728 q 270 707 317 728 q 191 653 224 686 q 141 576 158 619 q 124 490 124 533 q 141 403 124 446 q 191 326 158 360 q 270 272 224 293 q 375 251 317 251 q 478 269 429 251 q 564 320 528 288 q 622 397 600 353 q 643 490 643 440 q 623 576 643 533 q 567 653 603 619 q 483 707 532 686 q 375 728 433 728 m 376 197 q 251 222 308 197 q 153 286 194 246 q 88 379 111 326 q 65 490 65 432 q 88 603 65 550 q 153 697 111 657 q 251 761 194 738 q 376 785 308 785 q 503 762 444 785 q 603 699 561 739 q 669 606 646 660 q 693 490 693 553 q 669 379 693 432 q 602 286 644 326 q 501 222 560 246 q 376 197 443 197 m 342 581 l 342 508 l 394 508 q 428 543 428 508 q 394 581 428 581 l 342 581 m 375 443 l 342 443 l 342 326 l 279 326 l 279 644 l 393 644 q 465 618 438 644 q 492 543 492 592 q 479 491 492 511 q 439 453 467 471 l 496 326 l 429 326 l 375 443 z "}," ":{"ha":276,"x_min":0,"x_max":0,"o":""}}}
